<mxfile host="app.diagrams.net" modified="2022-09-01T20:58:39.990Z" agent="5.0 (Macintosh; Intel Mac OS X 10_15_7) AppleWebKit/605.1.15 (KHTML, like Gecko) Version/15.6.1 Safari/605.1.15" etag="EE4tzZXfSuyN8EZR_AiL" version="20.2.8" type="github">
  <diagram id="R2lEEEUBdFMjLlhIrx00" name="Page-1">
    <mxGraphModel dx="1448" dy="2035" grid="1" gridSize="10" guides="1" tooltips="1" connect="1" arrows="1" fold="1" page="1" pageScale="1" pageWidth="850" pageHeight="1100" math="0" shadow="0" extFonts="Permanent Marker^https://fonts.googleapis.com/css?family=Permanent+Marker">
      <root>
        <mxCell id="0" />
        <mxCell id="1" parent="0" />
        <mxCell id="dzG55kyt_CLBJyFvYWDM-1" value="" style="shape=image;verticalLabelPosition=bottom;labelBackgroundColor=default;verticalAlign=top;aspect=fixed;imageAspect=0;image=data:image/png,iVBORw0KGgoAAAANSUhEUgAAAMgAAAAyCAYAAAAZUZThAAAAAXNSR0IArs4c6QAAAERlWElmTU0AKgAAAAgAAYdpAAQAAAABAAAAGgAAAAAAA6ABAAMAAAABAAEAAKACAAQAAAABAAAAyKADAAQAAAABAAAAMgAAAACZ33VpAAAVQElEQVR4Ae1cD5RU1Xm/82Z2dhg264KwWTdbXAiHcpCu/JNQ02OJQSWEWDU2PaWKJk0QI2mibWpN6kk9aqInsSGJVpNYJWo1WptqqmipWT2WGoq6IEHL4SAsG1xXhHVdl/0zOzvT3+++e2e/fbw382ZdEML74Pfud+/97n33fvf77p/33k5MvV+KlVlBvri8o5yiAjmVK5qvSrUnun9R/UX6H2l/I2NFVRdlRho48TQQOciJN+ZRj8vQQOQgZSgrEj3xNBA5yIk35lGPy9BA5CBlKCsSPfE0cGQdpNQTpRNP31GPjzMNFByEj/fsv6A+UFhCy/GxqcXhBQ+K3C+L7F+L9CdFesRGGjimNJC48YbrYeAJFcsl0TCYfyyr8jG8bTCzvyPeG8TII88Soy0tLTaqy+TzQzrMQWz9U+vbVS43UQvkVXtBUKmd4BeZ+C6RTnYpMA1YB/QCxytdgIbPNY1/FuFzho+C40gDCTqCU3j5RuPP4V1bTjl5pCJP5xsnyfttmazDQJ7OpEVxMW407E3hlHImxJ4yoqchvCpcsWNS6kK0aqVo2XOCj9jjRAMJrhZDMPyYymgDj6ms2/TY8GbKriZuBtMtcaVx5R2V0In0F8c6UkwzGXgNl6cwVC2EJC+SIzbSwNHTAKzaNXiuDocSSfVuxUTV76TQAgd2zby4imF18Kecak3vR5a7UHDVyaOiZC6jxg906bIqPxS0ivRAwPWq4cqfBns1MBX4znByxEUa+GA0kIjnYPxmO9UF52iZcJrqqKxDa9z0OLZLDmUC6PWTT4IAVhFCU4WKH3pLzX5nC+rVBelt/SZTBkGVrpVCZfB0Nt6LjjeWxNWvBkgDPBNxRjiaRD3VA5MA3r8N8NMnkkdFrLcK4IxGFCOeJxcBjQD1Ql1sB7YBxyrRJmYB3JFwsm4FqMNiNB2ZlG9JxHIJ1ZdIqYPJGrU7fapqHTdN7U/VVmPPtQKOcyH2UPMwQlQiiQPzGvA48BOgQ1UeUGr+nDtjyaG09qne7JeGXvrPjMq8rhKJimR2SDtOBrJe8tt2rYaQXTm2gv+Et5CIc1AvAT4DLARkGzlo64GfAvsA0p0AjZz0TcCm/wD8HCaCeO+nASr0SuBswyMoEI10M/BvwDqgByhFl0NgsUfozxDv8KTZKJ39c8ClwGKAgyzpJUQeAjgGvP/FwFcA0kaA/SOxX+wfiffiPVnX5cCFwFmArLsdcdbzC0AS9fstYCkAcziMWO7HwFqg+7BcN2ExAtsWyn/KTQ59XQHJa410M8KrDe/XR2axrV8FOIZeW+tA2mMA27MDkERdngOwHwsxEI7qqqhRLTWnqz1VU9R78Zo12FvdjBUBTkJdJPAgCvsvl6jMeQbXIbwRct/Gk68VsVismgd0Z1zqilx/vxrsH1DZTMZPmZDSWysaAcmG5OmANWRAMt1NGb6uBnszMHE4qcCxjQsMvoHwBuDbABVszzXfB78PIFHBNBQSjZ5GSdkgopMtNqDRXAF4DQpJI2gKYoQkttOPzkTivcAMv0yTZvtHI7kMaABsH7qMDAPq0qa3gV8O/DNQC/hRPRKtXphPw7oNWMNIEWI56pmTyucBTjJeYluaTCL5colttuVbRWFvH2kT9wPLhIyXrUMCbWgV8EOAjpcBSBwXjjEn4FcTe8ZPVe2pWrVnfGP67crJDzk5db6Tz5tTRQ4yuc5ULrurZrCLS8H0zmRNbcap5Kk+pR1pwfzTuJXKcaXAVq0CWZnKSpWoqMDxJZ5Q2SEUO8zYqXhLQYbCm3uJ5dh5zq6SuhHZCdDBpgEcMBKd7EZgPhDkrMgqEI1BOiaNhbN1B8D2cJAWATRI0iSATvUl4G7g/dIXUAFXPdnWLsRfANgGDj7vzwEmsR3/BTQzUoIo+x9C5gD4R4FXAOqNffl9gKsjibp+HFjKiCHKbQC2An3A7wFnAzMBEtvF91rUxz3A0SYa9n8Ds8SN2eZngDaA+XMMEGg9fw0hJ5xPA7QjOgZ1kiWfaJ58luqLp3A4r3oIBn8+n0Ll+RgqD0XFsFTnVfPETGdubtd2/ch3S83sMzvG1WH2ji1GPgJnBb2FBXi/zIBSlXUfUfWJerVtsLCCDA84RaUR5kcYJKyQdljwZvKSvM7RgkyuZFSALqib4W656BjnAqQL3KDkNWHuvx2SXJ6bA0osQToNudHk34lwE7Dd3N8kFwLOUly1JNH5JLGNP8X9ra7oEJzZHgQ4WJaYfz7A+hoBxtkelzgM/mTrzSCb9f4TQH4Emf4z7Q5AOsd9iLMc2+Ul3v9HwEz0n/ehbtg/OlNZJO5fVjkjPAn3p6OTqLNbgFuBHkDSdER+ACwziX+E8GHg07j/AwgvAtiPDc6e8R9RHamT12TiSSjd1e647OD36g91fmxq975nPtrTlpt6qE019u5V0w7tVeBfqOvb/4mKocHrUcEwYfWQLxXNaNB7SZyNJCVERPJMZmco7y2zCmly5bgd8TMADoLrHGAMbUZ4HkDnKZc2ocDHgCDnYH10yI8DnIVJ7MNfa87/0oXkVg+k0XNluhcwatMz9FzE7wOkHKK6r48h5KrItpZD1NOfAGuBw5xDVHQu+C+K+NfBXwb4OQfFqA/qbCMjIPbjZ0A1Ix8A9eKePOPQRr3OwebsArhi3MSIoaUIVwOUp97XAe3sCA/kN2ObhIUAb9Edta4m0/31BZ2vqfPe3Kw++dYmNfedV9WHBns05oGf/852Nbm/+yYM1T8GzJioVpN1EN4nLNmBS4kCXBq/I+KPgP8K4HUMIaLZW3AlwhLruxSggktROwQ4O1laDqacftpyDOnINSaBTsfB6zDxoKDTyLUGCfik3420p33SvUlS1w8i83teAZ84tycXAvtNXh3CvzL80Q64xaPTliI6EPtnibsOaXd6QPG0SjuJSg31d9YOvHVVY1+rmtL7WzWlby+wR30406GS+X7kZ9QpffvV1B6sJL2tqm7g7euSuYE2W7tPGGQwnHEtJS1jQhuXMlw5Jpp8DsQVhg8TUAmcMcIQlRpWlvVxJrc0CQyNolxify8XhdjedhEvxtJJiq1c3rI/9ib4xOchjSBxsuLqEZbo3NK5yhmnsPcoJdcMgQdLCYl8bqXthEgbu0jkwUHy2uuRFlfVgz13zXl3W+8fdL+i0rku1VsBDSWyajCedd+YY4XhKlOTPaCa3t0CbMucNNjNg20QBc3wqKhAdsWwCdYxrKMwndsCS/eA6bKRECHvVayNsooWGQnB05nsKknxKSHKeEUWIsGuHlze2b9y6BcQ3heiAPWwNYTcUiHzDPiwzmqLrQNjx70B/EybcZRCns3KITr1z0UBrt4F4gw/R8dw/Ejl+p+sHehQkzLtqgIrBj9DcQnfZrHPiDOtEm/KPzywX9X1d7DMeiM0HGCfxr0ayBr7cF5pzi5xHFBLdkZj/EmbWEb4REjZt0LKSbFuEbFtF0klWVf/rtjzCLwTRskKILAhhBBXGzugxcRPF5nPCj4s2wXBbUJ4tuCPBkunLpeeEgWaBK8SMONaJuCLLF53DTmD2gli+azCIx0Nbq2zjjZ4yNHmyRd03YpIENlVQM6ylJXGX6jIU4lMl1uXnR65MFHOsLxnKYeV7QpTL2W8fQtbzspNtgzCNsGXw7J/pShsO6Wuy109bBs6LIOQW8+jRTz/hO2nbJPUu+w/DCZGxwC5q0U/n0Txa94EQn6GYp9MxXCIzxc+YIQM8ynrPtZz6zj8GmSQ0hAlL2uQDiLrGY0C6NFEKeIW54OkIF2UatNoVq5Sdb6ffKnr0YzXaO89Wj3INsq28zOrXDegGwRnqKdTVGYdlYTfVOCPOvil72Ac+XAgOgnPINxuVYDlCoMyjSF6IxtAcbmN8OZZI5FOYZ+MsGw9L2XSFMiP6HiZ5d+veLGBk9s6tnM0NGM0hQLKyNWoMUCmVLLsh6yvVLli+elimSavGmFNCDmvSINIkKufNprtNrM/nlrSkToF70XqVCbmjimdh04iF4r+eBIytVoOZZbZ8j6hdQS40giiEzCNsDJWwDqINOjXbCbCJYIPyxZrY9g6ypWTjl9s0LaKis8Gb7elIrkoy4E6t6hEeZlbhPgnBR+W5QQ2Uwi3GF6uzsX0IYqOYE8ZEQuOjGaszxHVSVvTDuIeUHCo7qyYeOWLE+Y4m08+Xb2dqsG5g9sq2Cu3X3mMWx5jATl+u/XihLnqxYlNyc5kNd9HBJE1drkaWFkakDQim95rGOk48hB1JfL96rPlvSFli7XRKz9W8d+KiqTBiGTNbsaVT1JIVcAqzYW/rIFoOrx4ScknhAQddpaIh2Hlo92NKMCHA6Q2N9BXzvQNIh6GXRhGCDLljjV1vlLULW0NDpJ37gOyPGtknOSsg6naa3anG9XrVaeqN9K1CiuEdooszh+H4lVqf2U9/gZkqto7fgo+i598Pb7LmiYq97J0EMJvAOkc1oFkOZsmHeQBCNg47/cNWaAE/3fIL2agJYqPOlvORItQy8SAmtjfe0QeX1ZNF/FiLI33W8UERpG3A2WeF+X4SYYj4sVYtvsaIcDPTyztBiNXkYtsRohwDmTCOgh1/cUQdVoRvrexY8P2PWozGDpOPt6GP3S6K47zBc8c+HT31vcS1ZdsrZmttuAL364EyuJv1ofgIAcrJ6it1fPVb6rm6a9+obW/l5UF8FwREj558Dxfx2E6qd8N9LUD17UifgP4MErgbEyD+yCoGTe1zo7lV3/2ENQODtJ+k8ntBz9AnGHiQUGTkeMMONbEl4MwBk1LcL0DKOUkDZB5HLDt2Qz+EcASdfG0jSD8JlAn4kEsjff+oMyA9DuRvjwgTyZfg8gakcAvI7pFXDlTet/A+4wD1+ItuZ7xsJI4WEnuxxnjZ63pxsa94z6qV4zW8fhbkXSDah3fMP3NcRP+tTdR8aOc/hUHWZ0vbw3em5lGgp/jcPmlU9kBsuU4U26zEYT8IO5fgGkizbJMY16YN8e2zFiHXahwnaj0a+A5AOy3lyh7KWD73AieZwFOQF4jqkfazcD/AuSPBNG45cq0GvFngXk+N6PjXAK8CMwy+TSyvzC8DDgR2D7Wgv81QAf0I9Z7AfAyMNtPoEga7YrO+l2gxkeuEWkPA7eJvE3gbxFxzSY+fnAjtk21va9Wzz7vUCL9q1wsN8M88l2Js8bKV05qasGf0O4cwnsQ/CnujPcS6XmD7p8Z4myCOnJOM64LATtz6IrFhbNnueRnRFxRzgM4u1qFrQBP0HF2AJylOPMuACQ9hwjb6FevlBtrnp+BnAlYw/lb8KuADQDb+xvgUYDEtD8HOFtSZ2wrVz9iJ9AB0KhmApK4x18P0EjHkm5CZTwYf9lUehZCGivbshXgfem8iwFphHQOvo3eBXipBQlfBezWqxE8x7MdeAk4ANAxWC+dkf21lAFDvRQjlqeeZgOs52+ANQBtlO1JAU3AIkDSdkQ+A9B+RlBiau/ravzQIdWTqNqHx7hnHExV3YGnVFrZfJLVkUqzofP4Wyf65QcnAB7a+bJEb3ti1+ER19us1f27qrzO58//gNggP5IrBzviR37p7PwfAtwXf0EUYqcJP7odiTRU3UY/gSOYRmP5Y4Cr2bnmPjSmzxn+eYSPGp7BIwANkKujdPIZiBNe4sD/JXAxoMcMYRcwVnQVKqITfxeoMpUGtYXZdByuHK8xEkAcj/0At22TjEw9wvMN7w1oZz8B9gJcgYpRLzKtvpcaQdrgsiKFHkDelUCPn0yiIp9Rk/HZyBnvvIzwQPfLE5oufTNVdxsWCRZajtbV8wcd+NEW/4NrQ9ov8eKdHdyh3kBfJ1Q/EftQqoqOkx8czA30duMog/clTqITIY2axIaaOrRz2XTpCORtum+Dkc90GsX3AQ7gcqABkLQPkScAzlR2sBi3gyyNaCPSbbwNfLm0AQVqTaEDPoWZxpVvKXAFQEdJA0FEIzsDWALQ2M4CGgHqhsayG3gOuBd4ASBNdgN9pVNa4r1/aSI0ytHQXSj0GHA1QCekMXvpJSTQHmhsWW+mT/wRpK0HVgKfBRYA1YAl9rMFaAZ4nmgFLgaeB0jb3cD32onUTwEXALSPxUACkEQd0R5oH5tkhpeP3fQP1+s0/iIJ3228jMe3DPlUi490czEH7wMde4MMUtn4Ar2xr13Fk3Gc4/G+BJ+nxPAXhLXvvakW9PyfahjqVLff/sOC7BFkalC3HTg6GJV0rBINfRrA9nLGSwI0AtJO4E81d/iFBiSNX0r8OyI0CBINea3mjsyFbZ8O0MnpdDuAsdB3FeqZBLCP5dS3GPLPAqQ24FTNDV/YzhkA66bztgO7gBF2jLgv4XexMF5wBL4MHD/Uo5q6t6gZPSkjzLwK/JEIPukNoAOHDqpMdx+ewWbwYZeDz1OwVGT61YTsu6p/sC+g1Jgnd6FG4nggDgwHiCBNBJo05+6duf+mk3spyDk4WEuE8CbBHwl2Nyolxpp6UCEx1sRJaOtoK+XqwPMEyOHfg6i6vn73DKFrpINw8UB4GHGc8TlK15tqYKBPxSCWTqfUYG9GVeDv0bNZ/oSprviwklHCCA1wtmwGzgaoaK4A1wJhaTUEOfuSOKNv1lx0GRMNCMunwTMK8Ld6tWMginMFfz0x52R8oWL9alxlTI1zsM3qH8TvNORxPBnU5eKRf4QdpFuF4DXgF4h4MZZbnRuEwN3g3ZlLJEbs6DVQcBCeQfS5A3XxUE5yf1HR/C2I1jt1bwDHcZ1Hi8KtrByTY/j50aCVx5WPriM0sAGxx0wKFfcUsMjEg4JZyPgVUG0EeCDn06aIxlADxkHMygEzH3Lc1cL9Y6mcPlO4b9n5da/AEBwKX/7yZ3cHHQKuA8fiyhPHj9HFh5JwFJ4/Cz44hs3+nayKT7haTc94oPwfgC867fnEZOl3KnQEvkicYhI5a10GHC/nMNPsYz/gbFWSgn6bVy80+kkXHAOHfQefq/AdIg/9EZWtAZ4fzgGeBPjUhUpcZcDDK88qdJw0IIkPUD4P8LFpREdKAzBv/W+4fptSPCycW8y2jKMqSwzXF3EhNcAtE18U8k2rnm6KhK8ir9RWDCK/07QYvbN62jvWPTVm7Rr1aCoP+qEvu4Zw7Y9oVBrgAZzbpmXANKAGoDpbgReAhwGuGie6ihugg4sBEh+F36O5MbrAQVxTtgZdbr1BDlJuPZF8pIFjUQOj9YtjsS9RmyINRBqINBBpINJApIFIA5EGIg1EGog0EGkg0kCkgUgDkQYiDUQaiDRwAmrg/wHytYOmJwYmGwAAAABJRU5ErkJggg==;" vertex="1" parent="1">
          <mxGeometry x="40" y="7" width="200" height="50" as="geometry" />
        </mxCell>
        <mxCell id="dzG55kyt_CLBJyFvYWDM-2" value="main" style="endArrow=none;html=1;rounded=0;" edge="1" parent="1">
          <mxGeometry width="50" height="50" relative="1" as="geometry">
            <mxPoint x="140" y="190" as="sourcePoint" />
            <mxPoint x="140" y="140" as="targetPoint" />
          </mxGeometry>
        </mxCell>
        <mxCell id="dzG55kyt_CLBJyFvYWDM-6" value="2022.08.31" style="rounded=1;whiteSpace=wrap;html=1;fillColor=#dae8fc;strokeColor=#6c8ebf;" vertex="1" parent="1">
          <mxGeometry x="80" y="190" width="120" height="20" as="geometry" />
        </mxCell>
        <mxCell id="dzG55kyt_CLBJyFvYWDM-7" value="main" style="endArrow=none;html=1;rounded=0;exitX=0.5;exitY=0;exitDx=0;exitDy=0;" edge="1" parent="1" source="dzG55kyt_CLBJyFvYWDM-8">
          <mxGeometry width="50" height="50" relative="1" as="geometry">
            <mxPoint x="140" y="260" as="sourcePoint" />
            <mxPoint x="140" y="210" as="targetPoint" />
          </mxGeometry>
        </mxCell>
        <mxCell id="dzG55kyt_CLBJyFvYWDM-8" value="2022.08.22_1" style="rounded=1;whiteSpace=wrap;html=1;fillColor=#dae8fc;strokeColor=#6c8ebf;" vertex="1" parent="1">
          <mxGeometry x="80" y="350" width="120" height="20" as="geometry" />
        </mxCell>
        <mxCell id="dzG55kyt_CLBJyFvYWDM-9" value="2022.08.22" style="rounded=1;whiteSpace=wrap;html=1;fillColor=#dae8fc;strokeColor=#6c8ebf;" vertex="1" parent="1">
          <mxGeometry x="80" y="470" width="120" height="20" as="geometry" />
        </mxCell>
        <mxCell id="dzG55kyt_CLBJyFvYWDM-10" value="main" style="endArrow=none;html=1;rounded=0;exitX=0.5;exitY=0;exitDx=0;exitDy=0;" edge="1" parent="1" source="dzG55kyt_CLBJyFvYWDM-9">
          <mxGeometry width="50" height="50" relative="1" as="geometry">
            <mxPoint x="140" y="420" as="sourcePoint" />
            <mxPoint x="140" y="370" as="targetPoint" />
          </mxGeometry>
        </mxCell>
        <mxCell id="dzG55kyt_CLBJyFvYWDM-11" value="main" style="endArrow=none;html=1;rounded=0;exitX=0.5;exitY=0;exitDx=0;exitDy=0;entryX=0.5;entryY=1;entryDx=0;entryDy=0;" edge="1" parent="1" source="dzG55kyt_CLBJyFvYWDM-12" target="dzG55kyt_CLBJyFvYWDM-9">
          <mxGeometry width="50" height="50" relative="1" as="geometry">
            <mxPoint x="140" y="490" as="sourcePoint" />
            <mxPoint x="140" y="530" as="targetPoint" />
          </mxGeometry>
        </mxCell>
        <mxCell id="dzG55kyt_CLBJyFvYWDM-12" value="2022.08.03" style="rounded=1;whiteSpace=wrap;html=1;fillColor=#dae8fc;strokeColor=#6c8ebf;" vertex="1" parent="1">
          <mxGeometry x="80" y="600" width="120" height="20" as="geometry" />
        </mxCell>
        <mxCell id="dzG55kyt_CLBJyFvYWDM-13" value="production" style="swimlane;fontStyle=0;childLayout=stackLayout;horizontal=1;startSize=30;horizontalStack=0;resizeParent=1;resizeParentMax=0;resizeLast=0;collapsible=1;marginBottom=0;fontColor=#000000;" vertex="1" parent="1">
          <mxGeometry x="70" y="80" width="140" height="60" as="geometry" />
        </mxCell>
        <mxCell id="dzG55kyt_CLBJyFvYWDM-14" value="main" style="text;strokeColor=none;fillColor=none;align=left;verticalAlign=middle;spacingLeft=4;spacingRight=4;overflow=hidden;points=[[0,0.5],[1,0.5]];portConstraint=eastwest;rotatable=0;fontColor=#000000;" vertex="1" parent="dzG55kyt_CLBJyFvYWDM-13">
          <mxGeometry y="30" width="140" height="30" as="geometry" />
        </mxCell>
        <mxCell id="dzG55kyt_CLBJyFvYWDM-17" value="" style="shape=image;verticalLabelPosition=bottom;labelBackgroundColor=default;verticalAlign=top;aspect=fixed;imageAspect=0;image=data:image/png,iVBORw0KGgoAAAANSUhEUgAAAMgAAAAyCAYAAAAZUZThAAAAAXNSR0IArs4c6QAAAERlWElmTU0AKgAAAAgAAYdpAAQAAAABAAAAGgAAAAAAA6ABAAMAAAABAAEAAKACAAQAAAABAAAAyKADAAQAAAABAAAAMgAAAACZ33VpAAAVQElEQVR4Ae1cD5RU1Xm/82Z2dhg264KwWTdbXAiHcpCu/JNQ02OJQSWEWDU2PaWKJk0QI2mibWpN6kk9aqInsSGJVpNYJWo1WptqqmipWT2WGoq6IEHL4SAsG1xXhHVdl/0zOzvT3+++e2e/fbw382ZdEML74Pfud+/97n33fvf77p/33k5MvV+KlVlBvri8o5yiAjmVK5qvSrUnun9R/UX6H2l/I2NFVRdlRho48TQQOciJN+ZRj8vQQOQgZSgrEj3xNBA5yIk35lGPy9BA5CBlKCsSPfE0cGQdpNQTpRNP31GPjzMNFByEj/fsv6A+UFhCy/GxqcXhBQ+K3C+L7F+L9CdFesRGGjimNJC48YbrYeAJFcsl0TCYfyyr8jG8bTCzvyPeG8TII88Soy0tLTaqy+TzQzrMQWz9U+vbVS43UQvkVXtBUKmd4BeZ+C6RTnYpMA1YB/QCxytdgIbPNY1/FuFzho+C40gDCTqCU3j5RuPP4V1bTjl5pCJP5xsnyfttmazDQJ7OpEVxMW407E3hlHImxJ4yoqchvCpcsWNS6kK0aqVo2XOCj9jjRAMJrhZDMPyYymgDj6ms2/TY8GbKriZuBtMtcaVx5R2V0In0F8c6UkwzGXgNl6cwVC2EJC+SIzbSwNHTAKzaNXiuDocSSfVuxUTV76TQAgd2zby4imF18Kecak3vR5a7UHDVyaOiZC6jxg906bIqPxS0ivRAwPWq4cqfBns1MBX4znByxEUa+GA0kIjnYPxmO9UF52iZcJrqqKxDa9z0OLZLDmUC6PWTT4IAVhFCU4WKH3pLzX5nC+rVBelt/SZTBkGVrpVCZfB0Nt6LjjeWxNWvBkgDPBNxRjiaRD3VA5MA3r8N8NMnkkdFrLcK4IxGFCOeJxcBjQD1Ql1sB7YBxyrRJmYB3JFwsm4FqMNiNB2ZlG9JxHIJ1ZdIqYPJGrU7fapqHTdN7U/VVmPPtQKOcyH2UPMwQlQiiQPzGvA48BOgQ1UeUGr+nDtjyaG09qne7JeGXvrPjMq8rhKJimR2SDtOBrJe8tt2rYaQXTm2gv+Et5CIc1AvAT4DLARkGzlo64GfAvsA0p0AjZz0TcCm/wD8HCaCeO+nASr0SuBswyMoEI10M/BvwDqgByhFl0NgsUfozxDv8KTZKJ39c8ClwGKAgyzpJUQeAjgGvP/FwFcA0kaA/SOxX+wfiffiPVnX5cCFwFmArLsdcdbzC0AS9fstYCkAcziMWO7HwFqg+7BcN2ExAtsWyn/KTQ59XQHJa410M8KrDe/XR2axrV8FOIZeW+tA2mMA27MDkERdngOwHwsxEI7qqqhRLTWnqz1VU9R78Zo12FvdjBUBTkJdJPAgCvsvl6jMeQbXIbwRct/Gk68VsVismgd0Z1zqilx/vxrsH1DZTMZPmZDSWysaAcmG5OmANWRAMt1NGb6uBnszMHE4qcCxjQsMvoHwBuDbABVszzXfB78PIFHBNBQSjZ5GSdkgopMtNqDRXAF4DQpJI2gKYoQkttOPzkTivcAMv0yTZvtHI7kMaABsH7qMDAPq0qa3gV8O/DNQC/hRPRKtXphPw7oNWMNIEWI56pmTyucBTjJeYluaTCL5colttuVbRWFvH2kT9wPLhIyXrUMCbWgV8EOAjpcBSBwXjjEn4FcTe8ZPVe2pWrVnfGP67crJDzk5db6Tz5tTRQ4yuc5ULrurZrCLS8H0zmRNbcap5Kk+pR1pwfzTuJXKcaXAVq0CWZnKSpWoqMDxJZ5Q2SEUO8zYqXhLQYbCm3uJ5dh5zq6SuhHZCdDBpgEcMBKd7EZgPhDkrMgqEI1BOiaNhbN1B8D2cJAWATRI0iSATvUl4G7g/dIXUAFXPdnWLsRfANgGDj7vzwEmsR3/BTQzUoIo+x9C5gD4R4FXAOqNffl9gKsjibp+HFjKiCHKbQC2An3A7wFnAzMBEtvF91rUxz3A0SYa9n8Ds8SN2eZngDaA+XMMEGg9fw0hJ5xPA7QjOgZ1kiWfaJ58luqLp3A4r3oIBn8+n0Ll+RgqD0XFsFTnVfPETGdubtd2/ch3S83sMzvG1WH2ji1GPgJnBb2FBXi/zIBSlXUfUfWJerVtsLCCDA84RaUR5kcYJKyQdljwZvKSvM7RgkyuZFSALqib4W656BjnAqQL3KDkNWHuvx2SXJ6bA0osQToNudHk34lwE7Dd3N8kFwLOUly1JNH5JLGNP8X9ra7oEJzZHgQ4WJaYfz7A+hoBxtkelzgM/mTrzSCb9f4TQH4Emf4z7Q5AOsd9iLMc2+Ul3v9HwEz0n/ehbtg/OlNZJO5fVjkjPAn3p6OTqLNbgFuBHkDSdER+ACwziX+E8GHg07j/AwgvAtiPDc6e8R9RHamT12TiSSjd1e647OD36g91fmxq975nPtrTlpt6qE019u5V0w7tVeBfqOvb/4mKocHrUcEwYfWQLxXNaNB7SZyNJCVERPJMZmco7y2zCmly5bgd8TMADoLrHGAMbUZ4HkDnKZc2ocDHgCDnYH10yI8DnIVJ7MNfa87/0oXkVg+k0XNluhcwatMz9FzE7wOkHKK6r48h5KrItpZD1NOfAGuBw5xDVHQu+C+K+NfBXwb4OQfFqA/qbCMjIPbjZ0A1Ix8A9eKePOPQRr3OwebsArhi3MSIoaUIVwOUp97XAe3sCA/kN2ObhIUAb9Edta4m0/31BZ2vqfPe3Kw++dYmNfedV9WHBns05oGf/852Nbm/+yYM1T8GzJioVpN1EN4nLNmBS4kCXBq/I+KPgP8K4HUMIaLZW3AlwhLruxSggktROwQ4O1laDqacftpyDOnINSaBTsfB6zDxoKDTyLUGCfik3420p33SvUlS1w8i83teAZ84tycXAvtNXh3CvzL80Q64xaPTliI6EPtnibsOaXd6QPG0SjuJSg31d9YOvHVVY1+rmtL7WzWlby+wR30406GS+X7kZ9QpffvV1B6sJL2tqm7g7euSuYE2W7tPGGQwnHEtJS1jQhuXMlw5Jpp8DsQVhg8TUAmcMcIQlRpWlvVxJrc0CQyNolxify8XhdjedhEvxtJJiq1c3rI/9ib4xOchjSBxsuLqEZbo3NK5yhmnsPcoJdcMgQdLCYl8bqXthEgbu0jkwUHy2uuRFlfVgz13zXl3W+8fdL+i0rku1VsBDSWyajCedd+YY4XhKlOTPaCa3t0CbMucNNjNg20QBc3wqKhAdsWwCdYxrKMwndsCS/eA6bKRECHvVayNsooWGQnB05nsKknxKSHKeEUWIsGuHlze2b9y6BcQ3heiAPWwNYTcUiHzDPiwzmqLrQNjx70B/EybcZRCns3KITr1z0UBrt4F4gw/R8dw/Ejl+p+sHehQkzLtqgIrBj9DcQnfZrHPiDOtEm/KPzywX9X1d7DMeiM0HGCfxr0ayBr7cF5pzi5xHFBLdkZj/EmbWEb4REjZt0LKSbFuEbFtF0klWVf/rtjzCLwTRskKILAhhBBXGzugxcRPF5nPCj4s2wXBbUJ4tuCPBkunLpeeEgWaBK8SMONaJuCLLF53DTmD2gli+azCIx0Nbq2zjjZ4yNHmyRd03YpIENlVQM6ylJXGX6jIU4lMl1uXnR65MFHOsLxnKYeV7QpTL2W8fQtbzspNtgzCNsGXw7J/pShsO6Wuy109bBs6LIOQW8+jRTz/hO2nbJPUu+w/DCZGxwC5q0U/n0Txa94EQn6GYp9MxXCIzxc+YIQM8ynrPtZz6zj8GmSQ0hAlL2uQDiLrGY0C6NFEKeIW54OkIF2UatNoVq5Sdb6ffKnr0YzXaO89Wj3INsq28zOrXDegGwRnqKdTVGYdlYTfVOCPOvil72Ac+XAgOgnPINxuVYDlCoMyjSF6IxtAcbmN8OZZI5FOYZ+MsGw9L2XSFMiP6HiZ5d+veLGBk9s6tnM0NGM0hQLKyNWoMUCmVLLsh6yvVLli+elimSavGmFNCDmvSINIkKufNprtNrM/nlrSkToF70XqVCbmjimdh04iF4r+eBIytVoOZZbZ8j6hdQS40giiEzCNsDJWwDqINOjXbCbCJYIPyxZrY9g6ypWTjl9s0LaKis8Gb7elIrkoy4E6t6hEeZlbhPgnBR+W5QQ2Uwi3GF6uzsX0IYqOYE8ZEQuOjGaszxHVSVvTDuIeUHCo7qyYeOWLE+Y4m08+Xb2dqsG5g9sq2Cu3X3mMWx5jATl+u/XihLnqxYlNyc5kNd9HBJE1drkaWFkakDQim95rGOk48hB1JfL96rPlvSFli7XRKz9W8d+KiqTBiGTNbsaVT1JIVcAqzYW/rIFoOrx4ScknhAQddpaIh2Hlo92NKMCHA6Q2N9BXzvQNIh6GXRhGCDLljjV1vlLULW0NDpJ37gOyPGtknOSsg6naa3anG9XrVaeqN9K1CiuEdooszh+H4lVqf2U9/gZkqto7fgo+i598Pb7LmiYq97J0EMJvAOkc1oFkOZsmHeQBCNg47/cNWaAE/3fIL2agJYqPOlvORItQy8SAmtjfe0QeX1ZNF/FiLI33W8UERpG3A2WeF+X4SYYj4sVYtvsaIcDPTyztBiNXkYtsRohwDmTCOgh1/cUQdVoRvrexY8P2PWozGDpOPt6GP3S6K47zBc8c+HT31vcS1ZdsrZmttuAL364EyuJv1ofgIAcrJ6it1fPVb6rm6a9+obW/l5UF8FwREj558Dxfx2E6qd8N9LUD17UifgP4MErgbEyD+yCoGTe1zo7lV3/2ENQODtJ+k8ntBz9AnGHiQUGTkeMMONbEl4MwBk1LcL0DKOUkDZB5HLDt2Qz+EcASdfG0jSD8JlAn4kEsjff+oMyA9DuRvjwgTyZfg8gakcAvI7pFXDlTet/A+4wD1+ItuZ7xsJI4WEnuxxnjZ63pxsa94z6qV4zW8fhbkXSDah3fMP3NcRP+tTdR8aOc/hUHWZ0vbw3em5lGgp/jcPmlU9kBsuU4U26zEYT8IO5fgGkizbJMY16YN8e2zFiHXahwnaj0a+A5AOy3lyh7KWD73AieZwFOQF4jqkfazcD/AuSPBNG45cq0GvFngXk+N6PjXAK8CMwy+TSyvzC8DDgR2D7Wgv81QAf0I9Z7AfAyMNtPoEga7YrO+l2gxkeuEWkPA7eJvE3gbxFxzSY+fnAjtk21va9Wzz7vUCL9q1wsN8M88l2Js8bKV05qasGf0O4cwnsQ/CnujPcS6XmD7p8Z4myCOnJOM64LATtz6IrFhbNnueRnRFxRzgM4u1qFrQBP0HF2AJylOPMuACQ9hwjb6FevlBtrnp+BnAlYw/lb8KuADQDb+xvgUYDEtD8HOFtSZ2wrVz9iJ9AB0KhmApK4x18P0EjHkm5CZTwYf9lUehZCGivbshXgfem8iwFphHQOvo3eBXipBQlfBezWqxE8x7MdeAk4ANAxWC+dkf21lAFDvRQjlqeeZgOs52+ANQBtlO1JAU3AIkDSdkQ+A9B+RlBiau/ravzQIdWTqNqHx7hnHExV3YGnVFrZfJLVkUqzofP4Wyf65QcnAB7a+bJEb3ti1+ER19us1f27qrzO58//gNggP5IrBzviR37p7PwfAtwXf0EUYqcJP7odiTRU3UY/gSOYRmP5Y4Cr2bnmPjSmzxn+eYSPGp7BIwANkKujdPIZiBNe4sD/JXAxoMcMYRcwVnQVKqITfxeoMpUGtYXZdByuHK8xEkAcj/0At22TjEw9wvMN7w1oZz8B9gJcgYpRLzKtvpcaQdrgsiKFHkDelUCPn0yiIp9Rk/HZyBnvvIzwQPfLE5oufTNVdxsWCRZajtbV8wcd+NEW/4NrQ9ov8eKdHdyh3kBfJ1Q/EftQqoqOkx8czA30duMog/clTqITIY2axIaaOrRz2XTpCORtum+Dkc90GsX3AQ7gcqABkLQPkScAzlR2sBi3gyyNaCPSbbwNfLm0AQVqTaEDPoWZxpVvKXAFQEdJA0FEIzsDWALQ2M4CGgHqhsayG3gOuBd4ASBNdgN9pVNa4r1/aSI0ytHQXSj0GHA1QCekMXvpJSTQHmhsWW+mT/wRpK0HVgKfBRYA1YAl9rMFaAZ4nmgFLgaeB0jb3cD32onUTwEXALSPxUACkEQd0R5oH5tkhpeP3fQP1+s0/iIJ3228jMe3DPlUi490czEH7wMde4MMUtn4Ar2xr13Fk3Gc4/G+BJ+nxPAXhLXvvakW9PyfahjqVLff/sOC7BFkalC3HTg6GJV0rBINfRrA9nLGSwI0AtJO4E81d/iFBiSNX0r8OyI0CBINea3mjsyFbZ8O0MnpdDuAsdB3FeqZBLCP5dS3GPLPAqQ24FTNDV/YzhkA66bztgO7gBF2jLgv4XexMF5wBL4MHD/Uo5q6t6gZPSkjzLwK/JEIPukNoAOHDqpMdx+ewWbwYZeDz1OwVGT61YTsu6p/sC+g1Jgnd6FG4nggDgwHiCBNBJo05+6duf+mk3spyDk4WEuE8CbBHwl2Nyolxpp6UCEx1sRJaOtoK+XqwPMEyOHfg6i6vn73DKFrpINw8UB4GHGc8TlK15tqYKBPxSCWTqfUYG9GVeDv0bNZ/oSprviwklHCCA1wtmwGzgaoaK4A1wJhaTUEOfuSOKNv1lx0GRMNCMunwTMK8Ld6tWMginMFfz0x52R8oWL9alxlTI1zsM3qH8TvNORxPBnU5eKRf4QdpFuF4DXgF4h4MZZbnRuEwN3g3ZlLJEbs6DVQcBCeQfS5A3XxUE5yf1HR/C2I1jt1bwDHcZ1Hi8KtrByTY/j50aCVx5WPriM0sAGxx0wKFfcUsMjEg4JZyPgVUG0EeCDn06aIxlADxkHMygEzH3Lc1cL9Y6mcPlO4b9n5da/AEBwKX/7yZ3cHHQKuA8fiyhPHj9HFh5JwFJ4/Cz44hs3+nayKT7haTc94oPwfgC867fnEZOl3KnQEvkicYhI5a10GHC/nMNPsYz/gbFWSgn6bVy80+kkXHAOHfQefq/AdIg/9EZWtAZ4fzgGeBPjUhUpcZcDDK88qdJw0IIkPUD4P8LFpREdKAzBv/W+4fptSPCycW8y2jKMqSwzXF3EhNcAtE18U8k2rnm6KhK8ir9RWDCK/07QYvbN62jvWPTVm7Rr1aCoP+qEvu4Zw7Y9oVBrgAZzbpmXANKAGoDpbgReAhwGuGie6ihugg4sBEh+F36O5MbrAQVxTtgZdbr1BDlJuPZF8pIFjUQOj9YtjsS9RmyINRBqINBBpINJApIFIA5EGIg1EGog0EGkg0kCkgUgDkQYiDUQaiDRwAmrg/wHytYOmJwYmGwAAAABJRU5ErkJggg==;" vertex="1" parent="1">
          <mxGeometry x="1190" y="7" width="200" height="50" as="geometry" />
        </mxCell>
        <mxCell id="dzG55kyt_CLBJyFvYWDM-18" value="main" style="endArrow=none;html=1;rounded=0;" edge="1" parent="1">
          <mxGeometry width="50" height="50" relative="1" as="geometry">
            <mxPoint x="1290" y="190" as="sourcePoint" />
            <mxPoint x="1290" y="140" as="targetPoint" />
          </mxGeometry>
        </mxCell>
        <mxCell id="dzG55kyt_CLBJyFvYWDM-19" value="2022.08.31" style="rounded=1;whiteSpace=wrap;html=1;fillColor=#dae8fc;strokeColor=#6c8ebf;" vertex="1" parent="1">
          <mxGeometry x="1230" y="190" width="120" height="20" as="geometry" />
        </mxCell>
        <mxCell id="dzG55kyt_CLBJyFvYWDM-20" value="main" style="endArrow=none;html=1;rounded=0;" edge="1" parent="1">
          <mxGeometry width="50" height="50" relative="1" as="geometry">
            <mxPoint x="1290" y="330" as="sourcePoint" />
            <mxPoint x="1290" y="280" as="targetPoint" />
          </mxGeometry>
        </mxCell>
        <mxCell id="dzG55kyt_CLBJyFvYWDM-21" value="2022.08.22_1" style="rounded=1;whiteSpace=wrap;html=1;fillColor=#dae8fc;strokeColor=#6c8ebf;" vertex="1" parent="1">
          <mxGeometry x="1230" y="330" width="120" height="20" as="geometry" />
        </mxCell>
        <mxCell id="dzG55kyt_CLBJyFvYWDM-22" value="2022.08.22" style="rounded=1;whiteSpace=wrap;html=1;fillColor=#dae8fc;strokeColor=#6c8ebf;" vertex="1" parent="1">
          <mxGeometry x="1230" y="470" width="120" height="20" as="geometry" />
        </mxCell>
        <mxCell id="dzG55kyt_CLBJyFvYWDM-23" value="main" style="endArrow=none;html=1;rounded=0;" edge="1" parent="1">
          <mxGeometry width="50" height="50" relative="1" as="geometry">
            <mxPoint x="1290" y="470" as="sourcePoint" />
            <mxPoint x="1290" y="420" as="targetPoint" />
          </mxGeometry>
        </mxCell>
        <mxCell id="dzG55kyt_CLBJyFvYWDM-25" value="2022.08.03" style="rounded=1;whiteSpace=wrap;html=1;fillColor=#dae8fc;strokeColor=#6c8ebf;" vertex="1" parent="1">
          <mxGeometry x="1230" y="600" width="120" height="20" as="geometry" />
        </mxCell>
        <mxCell id="dzG55kyt_CLBJyFvYWDM-26" value="staging" style="swimlane;fontStyle=0;childLayout=stackLayout;horizontal=1;startSize=30;horizontalStack=0;resizeParent=1;resizeParentMax=0;resizeLast=0;collapsible=1;marginBottom=0;fontColor=#000000;" vertex="1" parent="1">
          <mxGeometry x="1220" y="80" width="140" height="60" as="geometry" />
        </mxCell>
        <mxCell id="dzG55kyt_CLBJyFvYWDM-27" value="main" style="text;strokeColor=none;fillColor=none;align=left;verticalAlign=middle;spacingLeft=4;spacingRight=4;overflow=hidden;points=[[0,0.5],[1,0.5]];portConstraint=eastwest;rotatable=0;fontColor=#000000;" vertex="1" parent="dzG55kyt_CLBJyFvYWDM-26">
          <mxGeometry y="30" width="140" height="30" as="geometry" />
        </mxCell>
        <mxCell id="dzG55kyt_CLBJyFvYWDM-34" value="" style="shape=image;verticalLabelPosition=bottom;labelBackgroundColor=default;verticalAlign=top;aspect=fixed;imageAspect=0;image=data:image/png,iVBORw0KGgoAAAANSUhEUgAAB9AAAAKZCAMAAADXiUBIAAAAGXRFWHRTb2Z0d2FyZQBBZG9iZSBJbWFnZVJlYWR5ccllPAAAAyhpVFh0WE1MOmNvbS5hZG9iZS54bXAAAAAAADw/eHBhY2tldCBiZWdpbj0i77u/IiBpZD0iVzVNME1wQ2VoaUh6cmVTek5UY3prYzlkIj8+IDx4OnhtcG1ldGEgeG1sbnM6eD0iYWRvYmU6bnM6bWV0YS8iIHg6eG1wdGs9IkFkb2JlIFhNUCBDb3JlIDUuNS1jMDIxIDc5LjE1NTc3MiwgMjAxNC8wMS8xMy0xOTo0NDowMCAgICAgICAgIj4gPHJkZjpSREYgeG1sbnM6cmRmPSJodHRwOi8vd3d3LnczLm9yZy8xOTk5LzAyLzIyLXJkZi1zeW50YXgtbnMjIj4gPHJkZjpEZXNjcmlwdGlvbiByZGY6YWJvdXQ9IiIgeG1sbnM6eG1wPSJodHRwOi8vbnMuYWRvYmUuY29tL3hhcC8xLjAvIiB4bWxuczp4bXBNTT0iaHR0cDovL25zLmFkb2JlLmNvbS94YXAvMS4wL21tLyIgeG1sbnM6c3RSZWY9Imh0dHA6Ly9ucy5hZG9iZS5jb20veGFwLzEuMC9zVHlwZS9SZXNvdXJjZVJlZiMiIHhtcDpDcmVhdG9yVG9vbD0iQWRvYmUgUGhvdG9zaG9wIENDIDIwMTQgKE1hY2ludG9zaCkiIHhtcE1NOkluc3RhbmNlSUQ9InhtcC5paWQ6QjY4OEVFRjI2Q0QxMTFFNDhDODNBNTdFQkFDQzQ5NTYiIHhtcE1NOkRvY3VtZW50SUQ9InhtcC5kaWQ6QjY4OEVFRjM2Q0QxMTFFNDhDODNBNTdFQkFDQzQ5NTYiPiA8eG1wTU06RGVyaXZlZEZyb20gc3RSZWY6aW5zdGFuY2VJRD0ieG1wLmlpZDpCNjg4RUVGMDZDRDExMUU0OEM4M0E1N0VCQUNDNDk1NiIgc3RSZWY6ZG9jdW1lbnRJRD0ieG1wLmRpZDpCNjg4RUVGMTZDRDExMUU0OEM4M0E1N0VCQUNDNDk1NiIvPiA8L3JkZjpEZXNjcmlwdGlvbj4gPC9yZGY6UkRGPiA8L3g6eG1wbWV0YT4gPD94cGFja2V0IGVuZD0iciI/PinFKSAAAAMAUExURQ4MDZza8Do5OoyMjOvY1cPCwlNsd6bd8axcUZybmxoZGSwrK6SkpH2ru7hxZsuijPj4+LKyso93aeS7pPX19Xx7e7mWg5HM6NLR0Ye6zWeJlmpZUYPA6I/G2mNiYmxra+Hg4Onp6XOr0pPR7U1MTaWJeebm5iMiIuvBqTlGTLJmXMOEeFJRUe3t7fDw8NXV1fv18qqpqsfHx8emkkRDQ1d1hbm5uVxbW9zy+vP7/dTv+Hd2dtuynJWUleC1npjV7brl9diyrVdKRIzJ6/vs44aFhsrKyuL0+tOqlB0cHNra2t3d3fv7+7a1tc3NzaGhocTp9vz8/IGBgTQyM4jF6vvy7HRiWJGQkfni1MGfjPbRvL29vbPj89u4tOTKxq2srNSrpmmZvMrr9/DGrYGyw2WTtfXNtvrl2dSZhklfaZuBcu34/MyblIC+58SKgvbVwfj8/vjczPLy8v349nFxcazg8vLl422ToS0yNURWXUQ8NwAAADg1NPro3prY7vz+/3Wfrvbs636857/l9bTb8k1CPaPT7v79/J/b8JbQ5i8tLScqK+j2/PTLskZFRujRzvfayfLJsPTKsffYxdCjncWch7ORfjE6PdigjL2bh9Gumf77+SYlJWyfxF2Go5rY8NiumF+AjcmUjcrl9uGsl717cV9RSTU/RDYwLsaPiN6+uiouMeDDv8eeic6ljwkJCXy65tymkvXPuPPo5ldVVni03s7s965gVfjf0P///4BrYCsoJ2KOrRAODz5NVcSbhi42OSQmJ2hnZxMREnRzc3275v/+/p6enllYWP7//7Cvr2BfX9DP0EA/P8C/v6urq//9/Lu6urOzs6emp9TU1KioqIiIiCAfHzk3OElISG9ubykoKOPj45OTk39+fjEwMLy7u2loaXl4eMTDw4OCg/zv6P///pmYmI+Pj4WEhNjX15aWlu7e3Hu55AwMDPTMs/7+/vDh33y55ayNfH675gUFBXu34s2OfRgiJoidpe/5/aK5wYbC6IvF4LKVhP///6HS3q8AAAEAdFJOU////////////////////////////////////////////////////////////////////////////////////////////////////////////////////////////////////////////////////////////////////////////////////////////////////////////////////////////////////////////////////////////////////////////////////////////////////////////////////////////////////////////////////wBT9wclAABtaklEQVR42uy9C1Rd1b3ovQET5VElycZGc+VxDrJjBJJQBCsmWmtQwkvgmFixjcd4tMaeqjHWF0ZbRwZKm9ikjVbl3KMd1dra2BdHmzgwFjgBeaUhCZtXwAQVQjypvY5ze79+9+v6eD82+7Eec732/v3a0Qpu9pprrjXXb805//M/HRIAAADYHgdVAAAAgNABAAAAoQMAAABCBwAAAIQOAACA0AEAAAChAwAAAEIHAAAAhA4AAIDQAQAAAKEDAAAAQgcAAIDgFvrW43HZmWUut9tdPdCWHN8/1NHq5BJrw9nafCYuPjl8oHq0Wl0DmU1xx7dSKwAACF1XTrjn03byxIdJXGc1JBVG1LV5qdITVA0AAELXFW/2GSd82/FErrUSEmMSunzVZhvVAwCA0PUk1+2P8Jwsxt9lkV6Y0+W3KjOoIwAAhK4jDe4AuLIbGX0PQEpjkytQPW6jmgAAELp+OHvdMkiNTOGq+7T5ULKcOuxlqAMAAKHrxyK3TGpi0rnw80krTpVbg83UFgAAQteNeLdsqhPaK7n2sykoP1ktv/5aqDAAAISuF+kutxK6Ihh6n6YvokJR5bkY4gAAQOh6cdStEFf8Arrpo1R+2KK06tzHqTYAAISuE9lu5bQ1hnx419bGNhUVl03LAQBA6DqJyeVWQ/TpvlC+/H390aqqjTF3AACErhPNbpW4ElaG6sVfmuBSW2ubaDoAAAhdF0661dOSG4qXfjBbQ5WdpOkAACB0PSiIdmshtT3ULnx7qqYKiy6g7QAAIHQ9uptujYSW0rOStdbXAtoOAABC14HTbjdKl907T9ZeWx/RdgAAELoO7HILoCYk5tIzUkXU1S7aDgAAQhdPilsM8UEf8b40W1BVkWgPAAChi6fZLYqeoF6X3tcjrKIO03gAABC6cHKEecpdvS5ok6akfeQSV08NNB4AAIQunHC3QAYag3JNVkFktMhaCqfxAAAgdNGkuMXS9mHwXekjbYIrqY/WAwCA0AWzyC2a7Pzgus7rs4VXUQetBwAAoQumX7it3K7TW4PnKm/td4mvIVaiAwAgdNEku3WgbJOeRXYm9eWvXLmyKCMjoz1rlMHRfyga/UViiviYvE1letRPKq0HAAChiyXW5daF1PUCO8mJReWrh9blJMTXdLdV+A9Pq64Kz0yuiW84vSamcHAkJVbbkVem6lM7vaRzBwBA6GJpdeuEa51TW8nSVn4Y07kte1eFpleO3ramns7GjqI+FWrfWurSq3ZW0nwAABC6UGLcuhGepapEKRmrIxqyM6uFTwOk9kQczlWQpK2wS7+6OUrzAQBA6EI55daReEU5TtNzj3fG76p260t1Znzp0dzAk+0p8XqWIofmAwCA0IWSrKs9o2NkqjwmrmbAbSQV2X61XtIYrevhiYoDAEDoYunVWZypARalJxZGtHS5zaIrfmN5kpdSrU/W+cDRNB8AAIQukj7dnVm90VdEd0phZ1O023wqPK1esLFa94Mm0X4AABC6QNoNEGb3/JBuZ8aa+DK3lQjviRmpnCjcsW4DjjdI+wEAQOgCiTRClq7h2Z30tML+ZJfbikS3nMhwxkYYUrhi2g8AAEIXSJwxqpzqpCctOpXptjQugwYO4mg/AAAIXSDZRnlyuGDrh6UWl7mRZNN+AAAQukDaDDNYmQuLzyKT9gMAgNAFgmVNopf2AwCA0MWRhFnNIp0GBACA0IWxFLGaxQgNCAAAoQvjCGI1i3IaEAAAQhdGDGI1ixgaEAAAQhfGGsRqFmtoQAAACF0YpYjVLNbRgAAAELowehCrWbAjOgAAQhdHPGI1i5M0IAAAhC6MGsRqFk00IAAAhC6MbsRqFt00IAAAhI7QEToAACD0GcIRq1mE04AAABA6QkfoAACA0BE6QgcAAIQOIoimAQEAIHRhVCBWhA4AgNDtfwrRiNUsymhAAAAInR46c+gAAIDQZ2AOHaEDAACJZUA9mTQgAACELoxkxEqmOAAAhG7/U2BzFtNIpQEBACB0YbB9qmnE04AAABC6MBIQq1n00IAAABC6MPoRq1n004AAABC6ME4gVrOIoAEBACB0YRxFrGZRTAMCAEDowjiCWM0iiwYEAIDQhVGEWM2ilQYEAIDQhZGCWM0iiQYEAIDQxVGNWc3BVUIDAgBA6OLIRK3m0Eb7AQBA6AIhVZxJtNB+AAAQukDILGMSpbQfAACELpBG1GoOjbQfAACELpAM1GoOg7QfAACELpB01GoOabQfAACELpIu3GoGXTQfAACELhTC3AlyBwBA6EFABHI1A/ZaAwBA6GJpR65mUE7zAQBA6EIhKo6YOAAAhB4MkPzVBEj8CgCA0EWTg16N5xStBwAAoQumA70azyJaDwAAQhdMGno1HjZDBwBA6MLpxq9G003jAQBA6MLpRLCsQgcAQOj2pxXBGk0GjQcAAKGLpwLDGkyNk9YDAIDQhXMKwxpNE0YHAEDowslFsIaTXUD7AQBA6IKpZAtV46kroQEBACB0wRDnbgINNCAAAIQumET0agKdtCAAAIQulkjsagbFNCEAAIQuErK5m4MrizYEAIDQxZFbjVvNofcYjQgAAKGLYn00ZjWLihRaEQAAQhdDEmvWTCQ5lmYEAIDQRVCQjFXNpIdmBACA0EWwDaeayxDtCAAAoWuHBWumh7qz8xoAAELXzKALo5pNWRItCQAAoWujrwqfmk8NWd0BABC6JgiIswbDNCUAAISuhdO4lGl0AACwvdA/RKUWoSudxgQAgNDVkjKASa1CAo0JAAChq6SkBo9ah2ZaEwAAQlfHEBa1EAOsXQMAQOiqyGeLNUsRT3MCAEDoKmDFmtVYRHsCAEDoyjmBQa2WMI5IdwAAhK6YEQbcLUcODQoAAKErJRV/Wo8iWhQAAEJXxnHsaUG6yekOAIDQFZFGShlLUkyTAgBA6ErIwZ2WpIq4OAAAhK6AItRpUUppUwAACF0+LEG3Kq58GhUAAEKXSwfitCwnaVQAAAhdJgXheNO6tNKqAAAQujwasaaFaaJVAQAgdFmks2TN0mTQrAAAELocOnGmpamhWQEAIHQZpPXiTLroAABge6EPY0yLk027AgBA6AFJj8aYVucYDQsAAKEHgm3QrU8CDQsAAKEHwEmIu/Vx9dGyAAAQun9Yg24HTtOyAAAQul8q27ClDYh20rQAABC6P8qRpS2IoWkBACB0f2TjSlvQTdMCAEDofliPKm1CEW0LAACh+yYOU9qEBtoWAABC90ksSWXsQi9hcQAACN0nzYjSNqymcQEAIHRfEBJnH9hzDQAAofsiBU3aiBRaFwAAQvfOGixpI4ZoXQAACN07ZImzE8m0LgAAhO6VlUjSVrBDCwAAQvdKBI60FZE0LwAAhO6NXTjSVqTSvAAAELoX8lGkvXCl0b4AABD6fM6gSJvRQfsCAEDo80nFkDaDfO4AAAh9PmkI0m5U0L4AABD6PDoQpO0YoYEBACB0T3Lwo+0gWRwAAEKfRzh+tB3ZNDAAAITuQSJ6tB+9JbQwAACEPpcY9GhDjtHCAAAQ+lwSsKMNKaaFAQAg9LkwhW5HemhhAAAIfQ5JyNGOhNPCAAAQ+hyOIEdbkkQTk0VBSm7W8TWl21pqusPLovOiohxTROVF5bmio8Mzk5viE3JKIyI3tbf2OakxALCt0Dtxoy3Joon5F3l+1pmc7LbqWocy6l0VySf7IztyU1hIAAA2E3o2brQlG2livlS+8nhcalW9Qyu10ckJw82t6dQoAEK3RzEro3GjLTlJE5tPydLIk23aVT4Xd3JDYwZaB0Doloe0MjYlkyY2F2d5Z3KUQzd6UzuziFsAQOhWphw12hNXAW1shtaI7nqH/kRnbyxiah0AoVuUIdRoU1bSxibYerjO7TCMs1GpERlIHQChW5AGzGhTmmljo6Qfral3GE5eS3EKdQ+A0C1GMma0KRG0sdjVZth8kvDO9VwBAIRuJXoxo01JCPUWtrQhz2EuFafzedABIHSrkIIY7UpqSDevrZHhDiuQ2biVZx0AQrcEuYjRrlSEcOPKb4hyWIWoHray1URSxgKVDCbqXLQRtSVbkBvqiQtKWoOs7uwh9EUWsdMbb7yxY5yKN96woj3fHSvfda+//vqyZRtG/3e0nOYn5IkN1WdFbpPDWiSXo2XVY4Q1mgZI9HyZyqrSULL6npDeFqDYFWx1Zw+hnzFvHfWOZQe2fH7hi3v37du79+Bc9u4d/+2LFz7/+aVbFh/YcN2OKmP1/dh1Gw4s3nLp8xdeeNCzfHsnCjj2P/v2Hbzw+S2Ll+0wpwYTQ/NRsSD5rMNytB1BzapIi9Y4PjKiW9E6arUVrTuEM0VsdARd3dlD6HEmiCh62eLnX9y39+A8j/tjzKuj+hzz+7LrHhPePa7YsWzDgS2XTr5gzFK3zMK9+PmB61wG1+NgKD4pBrsd1qSbgXc15GgeHdGrZLEurUUrDt1hl/rgqzt7CD3e4G75dYsv3HdQI2MvAmPafXHC7xtev67rXaUFqXrsumVjnfDPnx/rg+8dt7eiFwwvpdq79/MDRs4XrA69B8WxVIdlqe0nd59yqjXXe5pOJWvXXLLQDVttDMK6s4fQuw0U0GOLL9x7UAcmh79HtfzixCD9li2LRzkwzdhPo7+89PnnL3zxxb3TXfC9+3Qozt5LlxnVUz8Rao+JpDqHpWG/HBWPSc3oNTISoz1TQche1X7NdTeA0FUxYJTNd1yqi8x9dOBn///UPxh1/IP7njfG6R+F1kMidjjKYXFaEbTxQl+K0INvIsURjdBVYUxv8o3FhtnUGuy71IBAuYaQekYsKHNYHlHJ+yr7Bg8PnVg3vOZo1vogX8uA0BE6QheG0widX+d3pH3fBRdc8NYko/+4z7Lq37tvrKA3jv53grHy+intixv0rtf4EHpCpNU5bECpgDNNb87JjJoVx19bVhcZxOsZEDpCR+jCMCBR3DKvFn/rxlfWLlmyfPPuPfPYvXnz8uXLlyxZe/Uro9Y00fD7Lhgt5StXj5Vz+ebNe7yze7Soa6++8S0voX77Dug7/hFCMTcdLjv43FGo2eaRyV7XSpV9FKx54xE6Qkfowjimt85fn7fE/K1XRj2+Rwmbx505avcL9unfDR+T+NW+3jX8l3LtKxd49ukP6Fm3maHyeEiPd9gDjQHXx+qifC+x726uROgIHaEjdD8M6hwJd+EcwV1w49rlCjXpU+5vieu5q5f4/P76kqvfmlOuva/rV7sDIfJ0GOy1ic+1JeNdGmhJXtXqIFQ6QkfoCF0YhXrqvPrS2Wp7a+3yPWLZrXpgfu++t6ZH0zVLfL7Ub5w1krD3c92S3LlC4tlQsq7WJj539GiZ/JITJBCegdAROkJH6L44bNBo+1trN+/RmfGp9yWjhl979dWvTDARvDb5w9VXrx2fDV++WbjCvTl95uT36RYdFwqPhqRkh204rv40i2UuyesJtr3dEDpCR+jCOKpfTrhLpxd+73tl+Z6QY/PamQn1z6v1qeMQ2P0ht9o+Pnf0qT3LNPkblETnInSEjtARulcadcsKNzNxvnb3npBk95K3psfd9VmVHvw7NMbU28jnvWrPslVJkED9EEJH6AgdoRsp9GVTvfMLloSozseZVvreZQhdOSWnHHZCbV6ARVHKto/bVoLQETpCR+jzWaOPzw9M+nzf2lDW+bjSL5jMPrtYh2ruC+6ngrPJVj53RKo7zWLFQX9NQZQ9DqEjdIQujGFdfL5lMnv6K5v3hDy7r558ubkUoSsjqc1ePle5S0ikiiPVBI/RETpCR+jWFvrnk6Pty9H5GMsnx92fF17R+cH8TOgrs5nP81StEj+salFe8GT9RegIHaELo1MHnz8/4a9XduPyqU76RI1cKDoT7MogfiTkV9vM5+p2cB5UGfUXh9AROkJH6Lr30F0TyeH2LUHkszLg7NPF6EEs9JW287mqrdb63GqPthqhI3SEjtD1FvqEzy/YTP98zqr0t/QwevBuwnXMbTufO1RkcSvIVH20qCDZrQWhI3SEblmhuybG228kGs6zk36jDkYP2qC4fBv6vF5FoNo6LbYoQOgIHaEj9Nls1GX+nOlzL7wyHu1+IUIPTKL9xtsdjl0qxiE0pc2JCIprjdAROkIXhuDEMhO7sVyNvb0xERr3OUIPRFKVDX3u6Fd+opnahgSCYsYFoSN0hG5RoS8eV9Za3O2dtePVswWh+2druB197shSfKKHNR4xG6EjdISO0PUS+gF87ped40bfewCh+6Mg2ZY+dyjOw1ugeSCiFaEjdISO0PUR+sR2qfjcXx99r9C87kEp9AR7+rzLBGE0IXSEjtAR+gyrBe6vtg+fy+uj73tMUJWnBeGjYKM9fe7YpvhMK7QfNAiWriF0hI7QhXFYmM+r9xIPJ3cefV80u635IKvWpkI/rPRM2wUctAGhI3SEjtCn2SR2wdorigV314/+cPcT1z/xxC0//J3d3HzrD295YrTod//hvruUxrpfiNC9k59nU587FE9/xAs4aJ79N2lB6AgdoYvrEAkNcL9R4frz+55YtX+Gl6//4Z/tIvO7Hrj+5VlFX3X3ffLXo4/VlJjNVJ3B9hxwdtnV54qfP06Fm6B7pxmhI3SEjtCnGBTk8+v2Hjy49y1FPr/rlgf3e/LyE7faom9+/Z/mFX3VH2S+jUzkjHtdRK0H3XOgzq4+V7792SJzDovQETpCD16hF4nx+bv7xvO3K3Din+9+eb83Dl1v+aH3Wz/2WvL9L9+yU15e9wvGptGrEPo8jtrW545Iped6Ushh3ZV2v+YIHaEjdGGMiJtA36dk+/MfPrjfF3+6e6eVdf7nJw75KvknD/5IVhd98z4xu6NHB9lTYH2UfYWueOO7XjHHtf1SdISO0BG6MPqE+HzZWIT7Evkevuv6/f5Ydat1lX7fg5/4K/oTskq+fGzQfQNCn0tBuH19nqe44Qk68BBCR+gIHaFPkibC59H7FC1A33nrg/v986cHrOrzWw4FKPoqWUEAY4vX9r2htd67gush8JF9fe6oUXqyHYIOXIfQETpCR+iTxIoacL9RwXB75f6A3G3NvDBPBC75y7KG3W8UsXYtuJ4XubU2Fvqw0rPtFHRgdfdA/vEY9SwoQOgIHaFbExEpX5UFxD1waL8MrrfgqPufP5ZT8j/9UG5gnNYUsJnB9AiILbOxzx25Sk83Xsxxz0apqes4bQctS0HoCB2hWxIBOcvGJtCXy16x9sB+eVjP6Dtv/kRWyQ/JMfry0VrbV62t4rsZcLcI9Yo7rbtEHVpF+t8RrcfMQegIHaFbki4hKWXkZ3x94JP9co1uNZ9/LLfkh+SMul+tfSfV1CB6Ahyrt7PQlb9aDYg69Ijyut5k/OkidISO0I1gl1afV+3be1B+RpkfHdovG4vNoz8hv+SVMvLG7X7r4MG92uLisoPnAVDZZmefO0qVT3WJOvSgCaZC6AgdoVuTGq1Cv3TUS7JXoP/u5f0KsFSs+y1KSv5g4OzuO8cG3T/XVPV1wfMAaLS1zx1HFJ+wsCX37QgdoSN0hD5JndalU/sUDLjvXPWJEi3+yULr0e87pKTk+2+WM+i+9+BeTRupNgRN+09z29rntVtN8NgkHQgdoSN0hD5V89qXrF2wW4dR64lF3ZbZrOWuBxUW/RYZg+4XaFy61h807b/H3h10FQ9uYT30coSO0BE6Qp+kU5vPH1OSIu5H+5XyhFWEfr3Skh+SMY2+/ODBvTs0VH5EsDT/kVp7C13FUImwbWKZQ0foCB2hTxGpyed5nytIKaO4lzvKfdbw+Q+Vl3xV4NecnTdqS+l+Jliaf6q9fe7YpPyUq0QdeyVCR+gIHaFP0qxJ6G/sPbh3udwO+hO+J9Bv/ss553xnlTotGpFRxsuryKHvfjpa5gc/0DLovnm0i16hvvaLg6T1t9vc5w4ViVaERfUnIXSEjtAR+iQLNAl9y8GDr8jO4O49rOyDB3/1ixXnjfPat845pEKL+nO3R6E+W/XLb0+V+cef+lq7JmMf2KsPHrxUfe1vCpLWH25zn6t59rQIOna9hNAROkJH6FPTl5qEvm/vXtk5X73nZbn5x5NmnOD8X3oken/5LvN9/juP14zvfuud2WV+7RuH1GbG2bxPS7q4rOBo/Ivs3kFXs3xQVGK8LoSO0BE6Qp8iSYvPNyhYsuY1Iq7y63N0Pq70cyyXXmZuRNzLt7/jWebX/uLV6DI2Xlt78OAB1dWfERRtv9K0JO61UXl50dFV4eHRY0SpDjxvVHHWmwSdQwtCR+gIHaFP49Ig9BcPyu+g3+zFeN+9/Dwv/HhOJ/1PpnfR584VfOc1L0V+5yvqu+gHVVf/yqBo+6uNtXh1ZkvcieMftiamzc+/XpCetL6ovLl4OK4utc0l+yvXqzjrfEGnsxGhI3SEjtBnJjDV+7xir/wO+n1ehPfp+ed55durLNVFn9NBf26F9zJ/q0RdF/3qgwdVJ5dJCoamb1wHPbqps3mpU37JChIzDnfWdVcH+l63uhdpMSeVYYap2hA6Qkfo1kRD7tfFCjroH88PcT/nnfN88NrW2UPcf7bQDPqvfJb5214C3mUso9+8V/0WLQXB0PSbjXB5ffdHH6arLWF6bnFOsp/x+CZV3ypm/9SoAjNMJVJUCB2hI3SBJKgXuoI16Ld66Z+vOM8nr81eJ/YH64S4P/eO7zL/onJ+7loZ0wWvHNyrsvqjg6Lp6x/iXnaqPVZ7ORMPN4TXChv1lqTjQs6tyRRTIXSEjtAtivpUcV0HDy5XY8XJ+XM/Ph/t786y4ypzd02d9W7x6Tv+yvwtVWvRlx88qDJbXFswtPxynW1e0bleXGGd5eu652/z2q7qu9KF7Bd7FKEjdISO0Gco1jDi/pZsK87bZa3ktfP8crtV0sXNJIn7YNX5/sv8q/l5cWQc4C21Y+5BsR16sp42j2o4JrzAWzt6oucO56scy6/Rfn5no7aaYiqEjtARukVpVy30Cw+uVb9m7cfnBeA5i2R0nxUS94sARX7nO2pS1y45+KK6+o8PgoZ/TEedh8c4dSr1SMSsRG85Kr+k0KQV8AgdoSP04BV6vlqfu+Qnldnpuc3aoU8D+fy882eGuh80c8R9Zuz/GwHLfPm8DDMyQvR37937rqoLkBMEDb9ON53v0jftTt9Q8sSMerLat4aCaO0nWYTQETpCR+iziFUr9GXyQ+LmjbhXjg+4r/jp7bf/1OdU+u2HrDDmPjPivmpFQKGf90tPoct5F7lx7wZVF6DT/u0+rV4nnbe1G1D4mKaBtjPqlxqc0XyW3SaZCqEjdIRuVbpU53FfonrE/ZdjA9S3j/fBC77iI9Lsne9OffqTJyww4v7J7ZPlWvHj5z597nbvdl/xoPJdVHcuUZnPfcj+7X5YpxXnq+1w8k7NS9EXIHSEjtAR+hya1E6h790t14qeI+4l54/6+rlAa8G+ZYUx9+mxhZsnFX65c3zkYJX3CfWvHFIe5757r7pJ9EW2b/aV0XrovLbfaY/TH9J4oslmmQqhI3SEblXi1G7MInvEfY/nxqhfH1Pf3B+9ddF/P/2J35nl8/s8o/heK5h6KblcThf9k5vljLnvU3UBcm3f7LN00PnZtqV2Of2CCm0vLsfMMhVCR+gI3ao0qsz7enCt3L3K7/Ichx7toJ9fMGtG3cdysB9Pf+IBs4R+y/QgwWQH/dPpLvh3vA4sfN0zt4yMSlqibiV6n+2bfbYOQi+1Uf68QU1neso0UyF0hI7QrYrKdWsb9srOKvOAh+SemyNr32vYpru7h643S+gfz571H+ugz9rI3WsX/bVDyheubVa145rL9plfk8SHxLnabVUDPRpOtcppmqkQOkJH6FalT2VamX171E6h/9SzJ/vLQJlaTJtEn160NpkH56eHAr2GnKN84dqeC7bkqRgisX2rPyHc55k226/GqX5nmtpc80yF0BE6Qrcs0aqE/rz8KfS5O6d+8OA7ngu8fuUrPfr0J0zaQ3U6Bf3v56d3PXR7gHmCiUn0j2Uc5pXnQzJRXJdon8fH2q0KjqnehP2EiaZC6AgdoVuWVHV7oa9V3s2dlaBldmrX/V/xlXptlckr0X/oWcLLPwiUOO78EuUr0Zeo2RM9we6NXniWuNM2rAS1m83Fm2kqhI7QEbp1K1+V0OVPod/qZcR99mT0/s8u95Wo5Rsm77h2t2cJ37l5JrO7j0Qzn3qcrozdX5erCXM/bfdGHyfY55G2rIWN6lLKxJppKoSO0BG6ZVEX5r5vt+Ju7iTne+ZqPyfwBmZPmBsT9+B0RPu3PguUjf4ryqPidqsReqPN23xlLz4fo19NIrx0U02F0BE6QrcsuaqEfoHypV8TU8+T09HnTyeC2+p7E7Pzp9O6mCP0B2fF5XtsA/d1nzu/eghdzuDCWyqyuWfZvM0P4nO1Rtfmc4SO0BF6EAvdqcbnb8iPifMIcp+KgDt/cmz6L/42JV31malh7n+aLPPs+LdvP1e5/7NzfO+8tqJSeZj7K48pvwIjNm/zDUJ9vtHGNbFG4bmmOk02FUJH6AjdumSqEPpjVytfy+05VP2LX53z6a/870k6tQjskCk+v8t7/Ns7K97xV+bvzj1fObMFV6vILBNr8zZfLdLnDbauikJFse45JWabCqEjdIRuXXpUCH2H7Dxxe1Z9Mkdwl5+ngK+bmvz11rnT/jL5xlyhy1m3tuR1xRegy+ZNPlekz2tsnmRnfbjsU43aZL6pEDpCR+jWJVKF0K+TvdXanrl7p36mSI7fMnXd2lQ434NKiuwRFffJKhlBccuVC73J5k1eZIx7VbrdH4Cx/bXyTjU50QKmQugIHaFbuLOkQuivy161tmduB71EkRynI8x+aIbQ//DJ3LQyCl9CJnhZxoE2L1N8AeJs3uQHxPm8/lgQPAJbM2WcqSvGEqZC6AgdoVu4e+BSIfTNcq3457l++64iOb5mrtAnJ/DPUVTmXygX+u5lobZqbb3ADnpMcDwENwXKAxu1bqs1TIXQETpCtzDJKobcdyuOLAu06NxryLipmWVuCZCaNsBLiIJ4PuVD7oP2bvEC87hnB8tTsLLZXy+9NyLdKqZC6AgdoVuYUhVR7rKt+Lv5W60pwFSh3x1ozbn/xfOTyDnSdYovQJK9W3y3MJ+7koLoQXjslNd0O2ejWgpLrGMqhI7QEbqFKVSx15fyUPFZmdzlM7W72S02EvoHc89YzsYyipetRdu7wTvF7ZzaEWTPwtaI1Ly5IQJtp7KcIo+A0BE6Qg9moaepSCwj24r3ec8rI5NVZgp9MiXOZ19RN02gQOiKE8vU2LvBFwrzeUswPg/7yhvXNdTV1fX0n+lYKXxJHkJH6Ag9mIUu7VIs9Gi1PXQ7Cf1uL4ni9BF6hdL6L7V3gxeWJi6qTwKEjtAROkKfoV95F13tHLrCIfeXLTCHfkj/OfQ3lFb/ans3+DJRQo/AzwgdoSN0hD5nBFS50GUvW7vLvkFxt6ibQ/9MudCjlVa/vZde94nyeXSsBAgdoSN0hD6LNOUr0WVnipu7Dv0TlcvWzFyH/ommZWty1qHvUVr/1fYW2XFRQl+EnhE6QkfoCH0uyleivyRbi3P99h11w9emZopTNqrw7c+UZ4pTWvvJ9m7vCYJ8HrpPTISO0BE6QvdFhGKhf0llLvdViuR4uSVyuf9FS+pXObncl4RY4tcqlqwhdISO0BG6ThQpFvqFandbW6FEjj81dbe1+yZLfrMiod9+SPFuay8prf1Ntm7uKXTQETpCR+gIXS9KqpQq5VK1+6G/pkiO1tgPXdFLyK/mZn69XkYP/UtKa3+9rZv7JmbQETpCR+gIXTe2KVXKYtnJ3J+YK/Rvqdlb/EFThL7nkJo93D+de753yzjOhQorf8Dezf2UoBD3SuSM0BE6Qkfo81C8cG2D4vQsahZ1/37yr242R+gPTpb5x0rKXDBX6DIW3O2+VGHlx9u7uWeKEfoJ3IzQETpCn6Yg3anfOdlL6M5qpfun7lQaWqZiu7UVlZN/dL05Qv9YRXq71zxSucsJ51ussPKHbN3aY8Ukco9KlwChI/SQFnpKxtGIU/Gpbe/m5U0+VqLyXANtqXVxZ5qXbhV5TvYSutSi23ZrHrlfS95RsbX4LeYIfXJw4RMlm7j/WHnm190HFFZ+ka1be66YDvo21IzQEXqoCr1k/abSmrIAfQN3d0NjkaDNEGwm9NUKnfKufC3+aa7hvi1fjl+f+psfmSP0B6aOf77yaX8ls//LlNV9b4GtW/sZMUI/JgFCR+ghKPSU5pw2+cN89ZlxRwQMxdtM6Fur9UoVt2fVXMUp2LvsO0o2OBHPzluVR/K943G2clat7dwRUlPodaxZQ+gIHaGrEnrS8bpo5V9X370xP7SELsUrzSyjNsz99/Knoz9Tkj5VD6P/SXEG+l8cUh7krnRvlkh7t/YKQuIQOkJH6IqFXpkbF67+K7siNG3NaIrQt6b3Ja5cmrEgK6v58OHixsY1w6N0lnoQMfbbocbG44cXZX2YkXFsZX5fSnqxbgvRH9ivciX6V/abGxO3Z8/NkwX4bIW6VejyJguUZn5dOTaFlJ7Wl7+ydfRSd4xf6cixa7qu1NuljmxsbFx9uDnryMSlTtpqbmN31orweW0SZkboCD10hF5S3lOt9VuTj6vfBEN3oTtT1ueWL4o5E1HakBBf053ZFa18ixUNHFC7gar8zct+b+pea+NRcVNZ7uQuXFvhMeJ+6M8yjnK1wqrvio7Wdu2qq8Izu2ta6hpKI4aOLirPHekzUPIZQjroqUHw2EuKywxXS9PxStNMVR8tm7KaZoTu6wFeHqOWowu0h9GkZ6k+enus4UIvynEJeW641iVZR+ixKUsXLCre2N+TndxW5TaZ1xUv557kg1Uyu7vfnv6TW80S+n1K5wk8Y9zlLKDfeaHbfMaWerT09G8sbm5fmqJr0F2jkIYZY3+fZ+Rpe6WJNc1UiogvQehev1/T5a8u1Hh6w1Eajh4o97RgoaetqRB3P9bn9Jkq9NjEoqyYjXEnU9sCdcuiu9q6k2uy4xO2nSo9PTw83NjYePTw4cMdWfMY/e3hmMbGoeGI0tKGhpPx2U2p3bu6lBngDfla9JhElxti9tx+c/PEzZ5Elxub/539KqbQtyi1b/RA+NilbonvaegfG1WPbGyMGb2km+Zf6UWjvz46eiOcmbjUCfHxNcnd4WWBbqWqttSEuOGYwiId3N4gZMQ9zfY+T8nTWAdqduiJzYhIjTprrNE3InQdvr62XdPZRWg8fLNxQs+Nrxd7Q9b3JBkv9PT1C45vPNXSPeDrmR6+qya+J67zTEzzkYyl6/vSNe+QXRmuV5i7R2qZ/b+XtRT9tenwsidME/pMIvpzlC2cV5JWRuEy9Gohw+Ox6Sn5SzOyNhWv6YzbFl/T3dXr43Bl3fGnNh5vHxGWxqVbRJvcZf8O+jaNVXA2SuFaHGf7R931DuOpRuheLoZb67eXaZrt0XojVJcYI/SCTZk63JJRw7FGCT1taeFQf/wub4/X6LbUk6c6h44fyV2fVKLDHbxRr/3Wdlaq6aI/t9/kVehzA/q+raaDLm9s4TpLLFqLTVqfe2R1ZEROfGqb19uvO75/qHCp5q5xnogWudH+Qtf8RHe0KugfFPa31TpMIgmhz6Nc+4lrWYd1VPPRc40QemxjlU73ZPSHOgu9IL+80ZvIq9tqEkrXHC1vTYnV+wmToiyobrF8LV7v4bnvyphFn94Kff/LO80T+l3TwwSfKt8Kff8n8sYWlMVDrDbCNrEpreWrz5QmpIbPy0/Qm9lS2tieqHYsvk9Ie1xve587tVfCApm9seaccIeZJCJ0PQIZBk0ccXc4OvQXemxkr453ZV26PkIv6VvQWNrS5iHT6F0tOcMx7SsNnSpUthT9up2qx9xlBLq/M9PZfcJEoc/a/PXHMkLcP1Mx4r5nibLoNaNTmKetbD86fKol0+Nd09U27nXFQ0XtIhpjlf076OmGCD3pcEOFw2wQui5CX6Dh5NbZQOjNVfrelq4swUIvWF84nNDt8hzXLG3MOmbOvhMLlCV/3S0/tuxlD9F9FnAt+u37rTDiPnvMfdX5Stegyxxxf1FRtWebpqC0Y4WRpfHdc8cTqrsTNhauV9BdHxLRFnsQeuAnet/hnjKHFUDoCF2x0It26X9j9hcIEvqYyk9mzlF5WU3OmcKVJm8g1aYsV5z8nrNnnPv+3wcYdL+8YL/5Me4e7yKB4uJ+emi/mhh3hXutmb9ea+uxwhMNNWVzuuuZJ4c7RmQ1DyFB7ocRuv8net/xhCqHVUDoCF1xJLohd+auPs1Cd+Y25iTPnpesSm04UXjMaYmHTKOisV/5k+g7b/VU3f5v+B+8/u7MJ28xVeiz30X8Z6E//0HPczz0O1mVo2xrFstkSHOOeT11dn+9OjmnODfQnZysd5hVyAvdqSrbNUJH6BYSukG4WjUIPaX8xMnZfeCBmrjiDEs9mpyKMpApSC0znUN1htv9TaCfM/O5P91lrtBv/WRG0P6i81f8ft4pysxY+4Y9Rtx9zdIONp6qmb24su3kifIU358XEedSJiF0n0/0Y9FWe2oidIRuVaIWqRf6jC2ja/qLM6yYGqNT0YLozXvUh8X5CzJ757lZH3tij8nMhMXtr/yFb5//Zf4ZygqJ260sJm6TNfWUlhHTXzPrBvf5wVim0PUVeprLgdAROkKXyxrVQm8ae9SFxw9n9Vn2KaNs5dqFCsLPV30yb0DaVx99xXOKh60NSf86SomvPvr5n873+cfyvv9zRVuhO60sqcTC4fjxhINNPj8yIqINHkXoPp/o6xwIHaEjdPmsUyv0xm2RGekWf8w0KLHLhj2auuj7f+k1Y9z5c/q6pnfQ53TR91d6n0d/7bv7VXbQ9+zcoKTKG2xgqsHIbY0+/22hiCa4HqH7fKJ3I3SEjtCV0K8lKM7iJCrpor+xR9Ms+v793/Gyeu1bD34w6xN/+p35Qp8b0XeOl9Vrt7+8X3UHfc9jSoSea3ePnREx71WC0H0+0cMROkJH6IroDF6hSz2KFq6pHLmeGcL+pYceLz9HzcIvnVeuzV109+BXPJbc/eIv3k7tkMwt4hRNoWfa3mMimnq3hNAROkJH6KIoDi6hpyf1rSzKyGpe3bgmQlG2uAO7FXjxem/a2//gr2aSpK/41jmffTD33/7ZAkLfc5dHB3zVL2dGFlb8+FOv5yV7ruBSRULf1v/R8JnG1c1ZCzJW5gvYkcdwagQ0vziEjtAROkIXRm2WjYVekJbf2r5obJetnvia7vCqavWbaL+hROi/e9m7+faveu4rP/7Wt27/+qcl8/7VD/dYgj94luuDm78xXuZf/qXSx0k9KHe13TK3FlwD4d01LQmn1q2JWdRelJ9UYHWPifDNYYSO0KepqdOHXQg9ZIR+NqrIVkIvSBoZ7Cje2J+QnRwe7RbIi+qyqHodoj60X+1Cbv25eV6M/v5PPvF7OnLz1e6ucgulNzw5u6d/uHjRgpGkSgt6zC2g+Y0gdIRuAxC6fehNs7zQK5OOtY9tmNWUOeDPANEVbd012fE9OaURGxtjDme1Kwl0X6ZIi9fvV8aDGnPKLP/JXy//60+WCxC6z9EFX8gOzv+aElsvKMo4Ung4pnFjROmphrr4muS2Cr/vZwOZ2Qmla463j1gm54GIZej1BQgdoSN0hC6S5BKLCt25fsGmNXF1qRU+4tUH2pKzE051njnasaBoJMXLMro0BX141xIlO6Hd9aAiKX6ibVeW5ZdPBdot0W70Hyrz+SrZc/8HFPi8zusF35qS37qgI+ZMZ1xCS2qbj5c3V1dqXdya1QvyTZ51Xy+g6QVDnjiEjtARuqWIs5bQC1JyF52J89wLazKlW3hyfM66M8eP5OanyRiGHdIln/t4pPuflFhRUxL3nT+bWeT+zs+EpnQPzMu3yv3a3UryvsrKO1yZll9UfniosyE+OdxbeMRAd3zcmebcPnO6uSI2T21C6AgdoSN0wbRbQ+hJRc0bG2q65vXHXWXJ8aeGYwqL8pUmFysIl++Yit17xE2ji5xAXzsnac1a7WvXPpZf8kPyhxaUjLjXqBiuSSw6EjN8Kj65bP79Ed6Uc6K5yOC9BFYLaHilCB2hI3SELnoaPd1UoRckljf2x2f2evbGM7NzImKOtCZpSL5RqMAyzyvz4i2yrfjxTk0CnrtWfMVmzUa/62bZUwV/kP+tStLEtWuMqCiPiWjIzqyed8O0lDYu6DMoV8tGAQ3vKEJH6AgdoYsm3iShpwzGfBTf5tHl6kpN6Cw+ckxM9FOLfMvsUOjdu2Va8WZtK9C/6ZHL7ZsCVqOvkll0BT7f/K78mk4VdPukrSyP6exJrfDosGfGfxQzqPsuA3EC2l0RQkfoCB2hC2eRwUIvWF+4MaG712NK9OS64nbBsU6J1TqtXJNtdI0+3+mZn/X8PUYZXUn/fKeSjVkyRAec57fHrEtInhtF19vdc6IwX7/59XgBzS4JoSN0hI7QxQ+6O40SeuzIooi6zDmd8oHUhhOFx3Ta7CVCvmeuU5yl5RMZ8+faxtv3bJ6Xbl3E4rW7ZMyjH3pAyTdep+sMusx59mOFJxpqyuZ21+simlfqofVk7a2uXkLoCB2hI3Tx9Bsg9JTyNQlzVF6VvG24eelWXZ82sZnyTfM1pV78UcBF3ZozuC+ZJ/S1AoTumdXdS/f85fuUfN9LFtqWxXls0caG5NlLFl27es6Up4g9SoX2RjeA0BE6QkfoOlC/Xk+hxy49XlozexnaQE1c46AxA45F+s2i79nzO//xZS//aI9Fhb5nzwP+X0Y+VpYKZ4P8ve1OGuSZlMHGuDnd9aqa/uOtwnZhd2lvdMkIHaEjdISuB8k6Cd2Z29gzu1tell16NNfQvdRL5Rv978q9eIufBenX36Xdu8t1GXIffxnxM+z+8h+U9feXyA+JcyUaa5vc1R9ll80eg9/WmCvC6vXa29xJhI7QETpC14V24UIfdfm2WS6v7m6IHDQhc6ezTf5adBVrwn53/SEf0XA/EuJdz6C4FTv3iOJHq7wHARx6QumbyGL5L02mrL1OGoxs6K4WafWtAprcOg0nlFOWF2XAf6pTyxE6Qkfo9qNNpNALjhXPdnlFS+eiEdPyVhfJHw5erMaLtz7hZaOyj38kyLp/9RD6X0Vu1fJDL1MGLz/xO4Xfsnuz/H1ZyraadRtIBes7IlrKZlm9IWZE9aL1RAFNrlj1qYy4jHswdCJ0hI7Q7UeHIKGnHemsmVmQVhG/sdzs1TnDsnXz7lpV/d+7Hvh4ttMP3XzLrcKcu3xOorjz3lm+Ryi33j2nm/7yxw+oWGanoIPebPYAccqRjfEzK9d7mzrLVY0aFQlocYVqz6GywsgHwwKEjtARuu3oqtQs9NGOeU+bpVw+UaxU2b55XXXY+H1/eOL6j2/++OMnbvnRXUKV+9s5Qv+J+B1V7/rhLU98fPPNH19/9x/uU3Xqy6vMX7KmcMS6fGN813Sh2nqKjykdPyoX0OJUh/svMPTB0ILQETpCtx+FmoQem3sie7pj3lvTmWWhrBmJ8rdd+3znHqsxO1fcN3fvsR7yO+jV6y0UzJVUOGsoqTf7TK4SqTcLaHCqK2PI0OdCGUJH6AjdfuxSLXTn4HBN9az+zlKr7fOcJVs5VUusJ8yfTQXGnf8zC+p8j4IQ9xNWi9AuWDprTKm3ZnhQbqhcsYAGp3qxxxpDnwvRCB2hI3QbUqRG6M72ztSpqLPqms4jaZIV+Uj/QXcd2f2zy187//zLf7bZij5XsC1LcoElb4608ojp91FXame7HKmf0N7c1CeKQ+gIHaEjdJWTZb6FXlK0sWZK5tHZJ3Kt+bweL6n8afQtlrTm7j07d1qyYDu/JHsRQfWIZe+POTNGrpqNrYHC309rb24uhI7QETpC143aPiVCTyyum5qaroofarWuzCcmTLtka+dL1jSnRdm9Q/ar0pC1bxGpoHUofiq+r6ouJlHnht6F0BE6Qkfo+rFOrtDTCk+FT/XM6xpXVkrW51iv7PQyy9G0fLbI9nm2De4SqXJl4/R7avipQp/T3Ce1t7ZMhI7QETpC17HpVsoUet302GRRiWQTOuRPo+/G03K5WvZ70oBtNgudNZNU5+szAnZPTUboCB2hI3QdaZcp9OOjz7rM0g+dkp3YKNvoBxC13AF3+dumttvqZnF+WDq2T99xX/++SXtja0LoCB2hI3QdiZcp9JSewymS7ciRHxjHNLrMJeiyI+KG7Xe/pBzu8XmXC9gOvQ6hI3SEjtB1pH6roih3m1HSIntLsL/jajnIj3BvqZSCikztjW0bQkfoCB2h68nRYBa65JS9eK36a9haRp75Crn12ZYeXD4XYZs4hI7QETpC15OaoBa6lL5L9jYtX8LXASfQX5dbm9Hrg8zn0oD2trYOoSN0hI7QdR1zdwa10KW0TFsY/Wd//WugFLRr//rXtSYL/YDsGYzBYPO5FK29ra1B6AgdoSN0XdkU3EKXUtpsYPSxDdbe8W/0n70z+hFzU7tfKjvG8LiE0BE6QkfoCN1oWoJc6AqMXv2iWbHu45uxXB74I6+Z6fMX3UEc4B6QPISO0BE6QtfQrpLr+tfEdCwYpfzw0Om6zKizOhwlqiDIhS6lyB51r/7cJFeuGLP1O/4S1q2d2H3NzAD3arnV2B+EPpeiEDpCR+gIXdXEdnhPcev8ye2SY2dS64UfLCPYhS6lyY6Mcy/+symyvHxc13/1k7DutYlPmOhz2XumbpOCUuja36ZjEDpCR+ihJvSKU4V+ErKlR3YJPt7poBe6lCZ/67UNZuxYuvNnE9uf+55FD/gBvePbb6ySW4PxJUEpdAEtDaH7f6InW09sToSO0LWw60xiwDM60ib0kJnBL3TJKTvDjHuHKdI8f2JE3dfbxPLxMfkAs+zW6J/3FEgIHaGreaJHWM5rbRJCR+iqGYiQmV41Jk/gUWu3Br/QpRL5WWCrvmZeF/1y74Puu883uYP+onyfB2f/HKEbIPT0XotprbYdoSN0tfPmJzPkn1RSqsCL1xECQleyU4tr8W6zZtG9G33zxAS6eTPol8qOh9sWrD5H6PoLXRops5TVoo5KCB2hq6I6Ik3RWVWWirt4cSEhdKlD9r6fedcZn8FlclD9vNfmh7ovmeyfn7/ZpPnzxbLfhT6SJISO0FU/0QsWnc7xh+ZZdneObOKKkySEjtDVUBUTq/i8Gmt1m0QPTqFLS2UnIne/e6nhnfSxxDFjrPjJ3MXwu785+S/eMWnAfbnsfK/uSAmhI3Qdn+gxeorKhDsCoQej0KtiCky5uacH+wtCQ+hSivxgd7fxnfSfnDfJ+T+Z6Yov/8mKqV+blCXupcdkT1VskhA6QkfoCD2UhZ53IlblmW0UdfWKQkToUkG/fKP3LjbN6Oe989o3f7t27drffvO1mV/9dqfFp88HciWE7pchhI7QEXqQCz1H/anFC7p6Q6EidElq7pWv9MeMDnf/7Tvn+WKFKf3znUuWya6tXX0SQvcPmeIQOkJH6D6JFRQUGh86QpfWd8s3unvZ1cYKdCr8bR6vLd9jRgf972/Irqp4p4TQETpCR+gIXTWtYhLBloWQ0KVYBcPubtcBYyPRpiPg5nbPf7LbjP65gu65a0iSEDpCR+gIHaFrIE7I1auNDSGhS1L5gAKlv7t4uaE2Xf7XFZ46/6Ypy9V2b4mWXUllGRJCD0wEQkfoCB2h+2ZrtZDLtzSkhC4lxSswurt3scG99N9ePuP0FZf/zJTe+Z6vPSa/hrKTJIQug1KEjtAROkL3Q6SQy3c8tIQuSc0DipR+YK3BM9jLf/aTb37zmz/52fKdO00Jbn9J/tpzd3WjFAoI2D41B6EjdISO0P1QUCXi8vWHmtAVdtLdrmVf2hM6vLRMQdV0j0gIXR4nETpCR+gIXfcuek3ICV2SsroUKd2949Ll6Hz+m05EbGj4XHJpb2YtCB2hI3SE7g9nnvgWHBJCl5ynXcqU/u6G4O+m73zxOiVVkhwi3fNRooW/NyN0hI7QEboHQgLdY0NQ6JI0UuNWyGNb1u4MYp0v3/KYotiCoYKQ8bkkYG6rG6EjdISO0P2yUsT1yw9JoUtSYbhSpbuv27IkOG2++0sb3lVUEydTpBAiXHMjO9uG0BE6Qkfo/mkTcP3KQ1ToUuyaXsVKdwWj019arPDdJnOBFFIIaGZVCB2hI3SE7p9hAdevMVSFLklJ/S63cnYc+NLu4Jk4v3rxYwrPf6CxILR8LnVrb2V5CB2hI3SE7p98AdevP3SFLkl929xqqFr2eTBMqO/+kmKbu6s706VQo0lAMytA6AgdoSN0/wjYoqUllIUuSSN1bnV0bfh8rZ1tvuTzZVXKpxwaUqTQQ8TWhkkIHaEjdITunxztFdwW2kKXpPUJbrdqqW+x5fD7ks8PPKbidF0NiVIokiDgMbkSoSN0hI7Q/VOovYKrQ13oo0pvcKl2urt6x4HPX7KP1TffuGVDhbozTciXQhMBr82OQYSO0BE6Qte9fdUjdElKOR3t1kL1jg1bXlxi8Wn1zV/asmFHtdozjEuUQpV1Ah6TzQgdoSN0hB6ACu01nI7QR9k61OXWStV1Gxb//aXN1lP58i9deuD1Cg3DEFURaVLockbAY3IIoSP0WQyE60MvQre10AVM761H6OMUFDa5ReCqGPX6519ba4Fh+N1rv3bp4mXXvaHxjDJjnFIoc1SAKfsROkKfxVKd7tUYhG5roTdqr+EMhD49md4f7RaGq2LHsgOLL73wpSUGq33zkpde/HzxhmU73nCJOI26DCnEERCp4ohH6AgdoSP0AGQInt1zhPiz23k81S2eqsd2vL7hwOItn7/4tZfWLhc+1b58ydUvfe3vl25ZfGDD6zsem0zi6hJS8vDhFCnkEdDIHLsQOkJH6Ag90NSv9hqOROhzyO8sc+vCtGLfrarYseO615dt2HDgwOLFW7ZcOsrfR/maD14c+5d/H/vUllEWj3LgwIYNy15//bodOyqq3nXrRXXCgkruBzF7JkQjdISO0BF6ILRv7dhpD6EnfRgZl5BdU1OT3bNu6EhiiZ6z6e09vW6rkjf+XwNILU7D5RO3ngBT1lcidISO0BF6AJI1n+MpGwh9pDTTs/dY01muY6iWc1G8yx3C7FrTh8inKBGhyhSEjtAROkIPQI/mc0ywvNBX+gg/r24pTtLvqOmb4qtD1ObDI1h8Nm4BqlSbWWYIoSN0hB4yQt8oNv7WikJv9uNVV3yhjnt/OTtORoeazVOHEjG4BwKyPTiKVR67HaEjdIQeMkLfpPkcaywu9KUBxr4rTug511uwoLQtZGQeXbc6CX3rMa/lcMSpvQHLEDpCR+ihInTtS2q6LS70wHun9Jbqq6H8yOzeEBhoP51RgLu90iJAlTVqD37MjdAROkIPEaHni72AFhR6twwZ9eq9S3fsYGdyEMs8PKeZrrlvTglQZZnqo6f0REflyfpPPUJH6Ajd1kKP1XyOVRYXera83C0xJXoXJC3ro+4gDH1v23acWXP/nBAg9HoDhj/WIHSEjtBtLXQpSmgbtqDQi/3Z6M1HH31k8h+7Ww0ozNbyztTgGX53dZd20DMPzCYBQncYsHIAoSN0hG5zoWveXifP4kKPDfdtpEefDQsLe+r9ST2tizWkQAWtxT32D5RrS4jMdeJqWeSKEPpxhI7QETpCD0CX1lJEWVzoUpHvce6Lto8KPeyLL0xtC9ZqWKHSFpw5GW5Tl2cmnGknC5wC+kQIPU7/ciJ0hI7QbS707qAXutTh0+h3ho3z1PQYcqOhBUsfjGxIttMI/EBNXEwR/XLFYzK12h9kZ5MROkJH6Ag9ADXBL3Sp0FdqmXsmhP7szG/q0o0uXGV+1nBCt9W13tUUV5xBt1wl2ndM8JjaQugIHaEjdC9oXyNrfaFLRRU+dip5dVzoX5g9npxvThFTFjT2t7RZLwq+q6bhTOFKeuWaEJFZxqH/WgKEjtARus2FXhcKQpfSWnz46ucPX3TJw4/MWcCWYWI5S/oGj3YmpHaZLvbq8JqEiOODieSKEUGCCKFvQugIHaEjdP80hITQJWm17KzqrmYLzLqmLAg/66itrR8lqj5qlLxR9NpRdZSxQ4weaPRwtRUxHx5jMZpQIkQIvQGhI3SEjtD9kxMiQpeStsk2XLH5pc2qfdwH//34f4/z60nOTuArlmqGX88w8Q2j3+T1CNEpEgjlsAihh+teTISO0BE6QreH0O+Vimr8avy9p556dXIB2xqzC9vwuJn8epMEImkVIfRa3eM1ETpCR+g2F3p/iAj93jtG/6fdT2L398bWpG9/deKHM6aW1Rn+uMn0IGGhF1SE0B1ZCB2hI3SErvNJ2kPoVz00/n+LfOZou3hiCdvFEz8NmTk54H7cdNpKJBBHrwih9yN0hI7QETpCH+W2sC+P/3/B4S6/Qg97dOLH46aVdKT2cQtQvRUNi0PIujXdJ9EROkJH6AjdDkK//5mwqyb/MXaj1ywuj074fPvkonRXu0klPfZr+dadiY4bi3qrnaZ+hvGfHWMhcWNRcAqIItJdHA0ihO7Q+4ogdISO0G0udM17NdfaQuhXhoVdO/1DSry31WqTeWC/OLVH+jFTCpr7az/6HhX3mK3HFrKpXMWWFxVVX+84K0ft9RhdGJFChB6D0BE6QkfoupbCBqlfR7kpLOyZJ2d+LByY77r3LxnvoV8y9XOZGUKb3z8f1bijfszgghefj4o9gNcxujAyhAi9BaEjdISO0BG6dO6oq2+Y9XOal076I18YC3RfOP1zqvGBYYlnZ68eOzsqcp0zwkX5s3pUugRCSBci9Dydb0iEHvJCH0LoCN0GQr93rPN905xfFXvZseXnV1xx2awf+40uZlr9lMtr6/MMS/Oa51Pq1WR+FUS0EKPrHNeB0ENe6GsQeqgLvdoOQn97TOgPzf1da1dA1XUYW8qS6gmZRxmfuz2q3qvTwyUQQo0QoZ9E6AgdoSN0P/QIbcNWFfpt4/FuX577y6TUQJqrMjYJavLjj/+3gT1zz456rRen1+FiIZwWM+au74gJQkfoCN3mQte821qFDYR+/0QA+1Uev449GUhyTZUGlnLd42ej3KYSNT/EPkYCARQKEbrOyeIQOkJH6KEu9HAbCP3KCaFfO2+MOy6Q4hqNK+TSWpN1PtFN9wyyX4+NBZAiRujxCB2hI3SE7psWraXYZQOh3zQh9NkL16ausQ+xff+y9ydWoxs36N7ttgSeSs8jCawIqoUIXd91BwgdoSN0mwtdc7ROtw2Efu5kWtcb5v+rTq9WW3hNWNid4wHv8UaVMcZtFfIcc4zeIoEF2tkEkQgdoSN0hO67X6i1FDXWF/q9kz73WLg2wSkvSnth+3iOmXvG/rnQmDL29bqtw9y59HYJNBMhRui6LjtA6Agdodtc6G1aS5FtfaG/PSX0h7z8yxIvkXELJ/O6vzeWMM6YXUqa3JaifnbGOFaja2dQjNAdRQgdoSN0hO6LcK2lSLC+0G+bErrnwrVxYuevXnt18uMXuUZ/OGVEETe5LUberxl0F4mzXozQ9VxHiNAROkK3udA1p7A6ZXmh3z/t83kL18ZJmpdh5p6w2XupFhnwuC9zW45ZwXEjCNn8obAJ6vsQOkJH6AjdB5qjb9dZXuhXzgj9Wq8fWOqZBfaRqc8/PJbmJVP/IeeP3BZkZth9AB9r5pQYoYtp9QgdoSP0oBR6lNZSrLG80G+aEbqXhWveBrxdD8/ZHD1C7xL2uawodHfUdOq4ZoSslQ4xPj8blYbQETpCR+heKdB8jsWWF/q5M0L3tnBtjAbPLvoXJz7+1ITfc3UuYYPbmuRNGT0PIWslvVZQF30dQkfoCB2heyVJ8zk2W13os6bQfUyiS5KzzUNllz073kOf3Es1XN9I9/Vut9WNXoyRtSJoEt0Rpds29QgdoSN0ewt9peZzLLe60O+dLfQ7fHzomOc0+vtPPRMW9rBrcquUHl1LuM1teaNHIWSt9AsSuqMBoSN0hI7QvaF9eWyR1YX+NzlCl07Mc9kj770w88MmHQuY4nJb3+h00bVSLkro9YkIHaEjdITuhWbN59hndaE/OVvob/v6VIH/VOq9Oq7cKnVbmagJobswskZio84KMnqLZZ/mCB2hI3Qzhd6o+RxjrS70WXllfAbFjU0++O8nt+m2LYYz2m0Ho+eiZI2kiuqiOz5E6AgdoSP0+WhNMX127uSqJYV+1YzPz33ST1UE2Bpdr9XoR90WZ2I9+i6MrJFIYUKvciJ0hI7QEfo8toltwpYU+mcPBQpyn+gpt/n3ml4ZPZKtLnT32fGN0Z0oWRuJwoTuKEXoCB2hI3Txw4Bt1he69OWH/Oy2NkN5AK8N61K4Y27rMx4Y9xFK1kiXMKHXF1nzaY7QETpCN1PoZVoLkWoDoUtPXnVuWNgzt90Q4GN1Pnx2z6tXjO275o7Ro2ydNhB6FGFxIvhIXBddl0F3hI7QEbq9ha4582uCHYQ+1kv/8pMBP9NX7VVnT42+DITdednoP+mRAbXLBkKf2KilTwJNtIoTuke7Q+gIHaEjdAGJ4k7bROiyGPYms0cn87o/6na7xBs9120LxgbdcyTQRq9Aox9H6AgdoSP0ORRpPsXGYBK601t3eWpz9GtG++gu4Y/R0/YQehRj7gI4JVDo9a0IHaEjdIQ+m8OaT/FIMAldWuRH6GEXja1UHxJ8xEx7CN3tGDV6Gko2+/15FtVJ1nuaI3SEjtBNFLr2MJ2VQSV0KdVLSNz0ord7xn6ME7oevc8mPnfnjQp9CCVrpEqk0duclnuaI3SErq/QsxC6P5o0n2J6cAm9db7Kqr84JfSHx3/OFpkzrtguQh9LL5OJkU1/gZ5NcixCR+ihJfQOhO6PaK1l8NiFy/ZCl3rmq2zh9kmhf2Hi58z14g6XYBuhu//78VqMrJERoUJ3NJUgdIQeUkLXEpYc/EJP03yGXcEm9BQvS9cenoxzf2pqpxZxoXFlbjt10VNQskbaBBs91lpPc4SO0PUVeiNC98MR7U+UYBO6t5Turocn+uiPTv+mZ6uYgyXqYV5XzbaT4bp00ZlE10qkWKE7kp2WepojdISur9A3InRdzzAu6ITurPDisve+sD3s2YWzftF1RMSxKvt18G7NeD+6MFqHLnoqRtZIer1go7clWelpHsRCL0PoVhB6qam6s7rQu0WPgASB0KXDXm1W/YjH9qonNT9JC06drRfv87LJPtsCHbro1RhZK/GChe7obbXQ0zyIhR4t8CZA6KqpQ+h+OqP1optXMAj9M5nbn0Wf0DSBmTJc9uvHo8Rbt3PqAE3iu+i/RshayRAt9LNRx63zNA9ioechdAsI/WwyQvdNofYbqy/4hO5t6Zp3Ko6rXZNeuaDONba0O0+80KfvuSEduuikltFMl0M48Vut8jQPYqE7BEYrIHTVVCF03/RoPsF6KQiFLjXINlx4o5pmvr6zazKdqg5T6NOZFzp02KNlEULWSqR4oTuiBxG67kIXuFgVoaumVsN7VbALvcQl/OoFh9CTAgSUvfnoPe/1Tv7zQESiQpuf6Z7ewuy/9RR6lg7p4koRsuZ5rigdjO6oS7PE09y6Qt+k+cCbELpWoS8ScKcXIXRflIsPUQgOoQfI3/bqNWOL0h9+Yernpk1yhzxLMk63zXzPrx//tc2E7o5AyJqJ00PoDveZWAs8za0r9A7NB45D6FqF3iHgRtewED3YhS4g4HZjcAq9MtWP1O55ZnL3tZllbNXZMQE3Cy851hg/0/Pvfe+eNx9//KzdhB6HjzXTV6+L0R3Rx0tMf5oHs9AFLkRH6OppQei+BpYFPFjKg1Po0ojLd9qWp6Y3a1k4Zzq94fgxH52kgvXN65p6Z332kYdHO/kXPf54rd2Eno2PtRPv0ImqSCdC90G79iMnInSNQs8SMRRVidC9c1pA7aYEqdC95YubYkbo17zvKfvuk6eLj+SuT0t3SgXp6X1LBxed6Y9v83w7uOzZscxzTz3+uIJl6NVH8y0g9DZ0rJ2lDt1wnxpB6F5ZoP3IpxG6RqEPirjHMxC697YlIDhn3trMoBF6bLdPqS2cFnrYq6qs+P1Lxv/4YiVCd5VLUrQeQnclxigoOpllRNDk0JHMoRSEPh8B6/9dsQhdm9CFvMqeROhe6ddetWdTg1bo0kqfg+5/vOiZsLnbrylkcoP1hY8ryCtTLOkk9NFH8LCCsjvRsXZyHfqS2ZmrfDrdmRvRFcRCF7HP3UaErk3oiSLu7qitCN0L+SJCc0qDV+jSGp9S+7nHBumTnn904cJH35QjxYku/r+/p0Do46sJ9BK61CJf6InoWACpDr2JSu38UG5PfeuxRRHx4bVCAvMsK/QkEZWahNA1CT1dyL29TuW5Je0KYqGX7BJRtYVBLPQS36lT3//C5Bz6z2dGrl99dvxXT/3cszv+1CXbn73o1dmz7e9fM/7R9+UniqtK01XoSVWyhd6KjW3QRZ+aUe9OGN6Uke9tVCW9b33rh8dP9CfUhItcF29doceKOL3kzxC6FqGXiHlZVZVzoTJSwI2ur9CrN6m/cJ1CqjYpiIUuJfnZq/zRpy4Ju+apy+ZtmT5nMdtYOPudk7+es1XbwvHdWP+PfKFHSroKXToqW+jl2Njys+jzqHdHD4SHd3d3t4WHh5dFR7uj9DqSdYUuCTnn0whdi9ClPCF3WbyKE2sPF3FkfYXucOzKVXndCnUaYAsmoUsZLtmee2QmUG77LM2775z5/Xuzw9wfHu3P18oWelmszkIvyJR7oquRsQhGHMGJhYXeK+QEzyB0LUIvE3ObHVV6Wq2CJrn0FrrDkapK6e1RZ0UcvCW4ha5ge5P3ZsQd9lTAX4+Hun//cdmp3Cc66DoKXX7e90ZkLIQ6hG6w0NvEnGFcCUJXL/RkQUNO7cp6ZsIGxPQXusPR3aF4pX2WoFxVQ0EudClHrud6n50x90Xz4tnHudMzL7psofem6y50KVPZuwVoJEXMKzVCN3yWI7kPoasWeouomM9C+cETmzLF3d9GCH20FZ1QFCVQGVEr6MAjwS70Atl7il8xM+Q+K/T9ke2+16yPCl3m3izbJP2F3ijzPIdxsRg6HQjdUKELe9xGnYgNXqGf0Ffop0RdhNpOeTtXj/S7Rd7fxgjd4ahvapa9QHikW9RRXVKwC11Kb5Nt9Cl3X/KI1yQ0d/Z6/EGUbKFnGCD0rb0I3VCcvQjdUKGvEXeWvWecwSr0dfoKfUjcRQgPvGXw+uFwwfe3UUIfe29sWS2nn57YUyvskC3BL3Spr0uu0V94eCwB3BcvnrsU/dGLJoLcX/2jW63QB0oMELq0Td5ZfoSKBdGM0A0V+iKhT9v4rFiErlzoWSIvwq7Dfq6BMyuuTPz9baDQx4Yh2vrL/WbRcXbU1Ao8XmMICF0aGZCfdeXNFx7xkoZm4RULH62e//tRocvbPbVBMkLoH8o7RTZEF0YqQjdS6K2CT7U++XRH/rwIufT1Cw4PRXQWFiB0b+SLvQZ5LUe9ZLqKPRazra1Wl/vbWKGPU1Z3IivRS5hc+uDGGsH7NiaGgtCl1mi3LsgWeqEhQo+NRujGkliP0A0Ueqwej/j6qszsupyc0/05CXXZyV3V05d0YCVC90KB+IsQtetkf2RzR/uCBR92HB7qT0iO1vH+NkHok/fZrpaG0uE1jTExMZER/T0tu6p1eHWQQkLoehldttDTDBG6VIfQDSYCoRsodGnA0JpwJSF0L1TZ+/42S+iGEBciQpdWDpgp9F2SMUKPQegGUxKO0A0UeraxVXEKoZt/ERC6AgZDRejS+i4dhF4vU+inDBJ6IkI3mqX1CN04oa8ztioqELoXOhG6VckrCRmhSym7dOmhn5XzuRiDhC6VIXSj6UToxgm9w+DnI0L3QiFCtyhn66TQEbq0tUWPHrosobcaJfR4hG40BZkI3TChJxlbFVEI3Qt9CN2qZIWS0KWSUrN66E6jhL4GoRtOfhRCN0roBkfFIXSvVCN0a+IuCCmhS1Jzr3ChO2R8bFb70Fno5QjdeI4idMOEfhKhmy/0FoRuTXqkEBO6NLLLDKE3GSb0FIRuAgkI3SihFyN084U+hNCtyWDICV2KjTNB6KcME7qs70fognF2IXSDhJ6I0M0X+jGEbqeW6wjup++CLsOFHmGc0LsRuhnT6HkI3RihS10I3XShV7oQuhXpDEmhS1v7XQYLPcY4occjdDPIqkXoxgi9H6GbLnSpDqFbkPqU0BS6JLUmCxJ63uOP18r42BHjhN6P0E1hGKEbI/QMq1RFKAt9EUK3INlSqApdkjZ1GSn0VtVCL1Qq9EiEbg51CN0QoRs63IvQfQxy1iN069EewkKXYoeEJHeXJ/Q+1UI/rFTohQjdpBsqGaEbIXRDH7kI3Qc1CN1y+MxT7AiNJ7DzTJlRQk83Tui5CN0k0rsQuhFCX4rQzRf6JoRuOWJCXOijnaqYTK1C/29ZQi8wTugjCN0sUqoQugFCNzLOHaH76g1FIXSL0VsQ8kIfC7Gpc+kvdJdknNCTELpp5LsQugFCP4HQTRe6nUNGglToQxJCHyOtWEvI+6/lCD3aQKHHInTzOOZG6PoLPT0KoZsu9FyEbi1cToQ+PVYamepSLfQoawldQugYPbiFbuBDF6H7pA2h26SDHnpCH3tIdeS0KZW5a9e24sL0UosJPRqhY/TgFnpiLUI3XehHEbqVqCpA6J4kdaxrkudbV1vL6U0rJ6oQocNso1cjdL2FbtxuXwjdJ7G9CN1CNEsI3St95ZGnsjOrfYi8IvnkR41H8me/DSF0mE1+FULXW+j5tQjdbKFLkQjdOrRJCN3/Qys/N+tw8Znh4XWlpZ3Dw0MxzR/m5qd7+yRCh7kRGeEIXWehG7ZfLUIPwi56EAq9thWhiwKhg4fwUhG6zkJPqUfoZgtdakToVuGUhNAROuhEQQJC11foUidCN13oBV0I3Rr0OhE6Qgf9OFOL0HUVemwZQjdb6NIChG4NCiWEjtBBR9rzELqeQpcGEbrpQjdutQFC90ePhNAROuhKn30Tb3TZQejSNoRuutCT3AjdfMqcCB2hg87ENthV6PG2EHpsF0I3W+hSM0I3nfqAtxFCR+ignUJ7Zo2rHbSF0KWReoRuttCleIRuNo0SQkfoYAApqWft97hzFUr2ELoRyUcRegCcFQjdXBokhI7QwRgabbdt9Mk0yS5Cl/oRutlCl9ZHhbzQTY1/TS5B6Aidq2YUifbqpIdnyDgnywi9sgmhmy10qbA21IXeamIbL0uXEDpC56oZx2r7zKS7GislOwldciYjdLOFLhWbfdt215sq9NqCkjizTr23T0LoCB2hG0naNnv0YaJKt8o7IesIXXK2IXSzhS7gcFpwN0pVpgp97B4pNGfYvTpfQugIHaEbzNJu6+u8viFJ7ulYSOjS1jaEbrbQpVIT79ueNElKNVXoyWN/1pdsXZ8jdIQOYukos7jOe/rkn4yVhC45UxG62UKXIsy6bzPHdxlrMFXoCRN/eCbK6Jn0qkSZlwehI3QQS0GjhTebrM9JUXIulhK6VHASoZstdCnSlFmlquZJl5oq9IjJv8w3tpN+tk32kBpCN13o5Qg92Ihd47Kmzt3r0pSdibWELkknahG6yUKXjhi/eq06smDy4FmmCn3R9N8eN7KFtzhlXxyEbrrQMxB68OGMjLaezssanUrPw2pClwZdCN1koUsrDZ5Ucq+ZuW8TTRX6rInsrXH1Bp1+7UYF1wahI3TQZeD9eJullqXXNpVXKj+LWO0HzhBbr0k1ZxG6uUKXnHVG9s7XzH4NrVQ2fS1W6PVzWlBikyHn72pXcmkQOkIHnRhssswitup1KerOIcp6KiuOQujmCn3sWWXU3Hlk7Nwjh5vYQ/esqtZU/SugRdkkGUJH6KAbfaerrRAIl11YoPYMtO9zlia8VlNaELrJQpeSDNmqZdeieaNKdSb20OfvTZirc3Rc3mGF1wWhI3TQkZLyeJMzYO9qTNdQ/lOaRwz1qNV2HfYJqfJzPO3Tpet1ur+0ryJrU3nkD/Xe07Y+vsjLYTcq+g6/uw91Ki3RkJcvaY3Xbxiutkfx2zBCR+igL1uLu00beg+PSNRW+HytLtumS51WHq8SXVXJfg6nOaVNVIFON1eW5vNOUHvogkY9I72rNnqXWYaib/F79xeKeStLzNHplX1Xq/KLgtAROug/9D6UXG+8zXedSNRe9EhNRTgblahTlRYUC+6lR/g52GqtX65bMyzQGnFeq2EywLlGpxml+hafkWAFSg6Z6r/uBpSVyue3OWMyxddB2xE1lwShI3QwgrSjTUbml4qqaUwSU/BmLf2w6kEdqzRL5ATmgN/s9hq3zk6N1a0SRrQ5tbZY09Fji3UYeE+O8XctBuU3o4EAkaAjim7tCn/j38caxIYJdh9Rd0EQOkIHg3C297cZMvjeVjoocIi3IOtUama4YrrakhOOO/Wt0cRSQV3E+uwAz/6sprJolQwkx5ToWAdppW1qSxZdUVek+fiD8UIHnzI3BlqPsTLVfyOqz4sa/09FabrAuuvuDHAvl7SfFLRty9mohGNqrwZCR+hgZEe9uadCV6mXJWxKC6H6rBzs0dw1ctUdT+fOVM/WYkFDJfWp8oaVYvvS0mcTa5GKKDiSICCsYFekhrsRoSN0MPoBWN6ZqscejPWZp5qTQq86K3M/Uh+05moZWskdqf09NaZGa2TYQEPH1iCoidbObg0jFrW7hvs0HR6hI3Qwg/zm003i0sPWt/VEthaEbm2mFca11Suus5zV+dyIoogdPL1Lrcqi42P6gqcmnO2nk9XEy0TXHdY8UoTQETqY11fPiCnN7tLUt6mvyF7XPFJAXUoFrcU5yfKGPKuT444fo87ES71oKL5LmdXzkksLg3BYqWQkZtsu+cNwUbsaNqWIOC5CR+hgNikZhzfmNLW5lDwKa3szW/ob2xM/o/rmdo+WNp/pr0vt8jqz7i5LPhmxaelWqknPF6ulzRF1mb0BI0Xy2uIjFiUGd8NujzxV0+UvyKO+KrlnuENcLSB0hA6WIX19Rkfjxo9y6pqS28IHol1R9bODd6urwjNTW3r6Nx79cGlSCbUVaPgjZX3rgo6OjsMxo6zuWFDUF0ulGOj1vtzCxohTJ7NHb+Wqd92ToefVA23d2T2lkYWtIRS6GZufW1i8cd2phLqmCerqGkojhg63rxQ+NoHQEToAAAQBCB2hAwAAQkfoCB0AABA6QkfoAACA0BE6QgcAAISO0AEAAKEjdIQOAAAIHaEjdAAAQOgIHaEDAABCt5TQ/9+3377jjptG//P/IHQAAEDothX6F8ImeVie0O/98v0IHQAAELruQr//bzdcedXbNz192/f1EPr3Rz/5zLkPXfv0TW9fhdABAACh6yP07z/0zJSgw3QTuoIDIHQAAIQOaoSuzLcIHQAAEDpCR+gAAIDQEToAACB0hG4PoS986No7rvzB/Vw7AACEDqM8+bcr77j23IW2E7pr4cQnH7r27Su//AHXEQAAoYewy39w1U2ToesLXfbroc8E3Yc9c9tNV937JFcUAAChh6TLZwnRvj30Wdx205VYHQAAoYcMX77ypts8XWjzHvrsvvodN3yZawwAgNCDvmN+7bneNBgUPfRpHnr6qnuZVgcAQOjBKvO3b3vGlwKDpoc+845y7ds/QOoAAAg9hGQefD302VJ/kqsPAIDQg4N7r7rtmUDqC74e+ozUr2JOHQAAodud+698+lw51gvOHvr0nPpNN5CABgAAodu3a/72Q3KVF7w99Ok1bVf9jTsCAACh244nb7jpXPm2C/Ie+lRH/Q7C5AAAELqduP/Ka5V1X0Oghz7BuU/f8CRtAwAAoQenzUOlhz55rk9fidMBABB6ENo8lHroU06nnw4AgNCty5M3PK1ScqHUQ58845t+QBsBAEDoVuTeO85V77fQ6qFPzqe/zQJ1AACEbjG+fNVDmvqrIddDn1rLxvp0AACEbh1+8LTW3moo9tAnh97vpa0AACB0K3C/ts55SPfQJ7rpRL0DACB00/nbTUI6qvYTuvueZ0QZPeyZO5hNBwBA6GZyw7WClHZPYIG+aaTQHwn88cvCRPI0Qe8AAAjdJJ688iFhPns0sEDfN1Lo7wf++B+3CzV62G1X7qfVAAAgdON1ftW5Am12WWCB/txIof9cxucvChPMQ0ymAwAgdIO5X6jOZfWILzNS6DJeMNwXPxOG0gEAELqte+dvi9V52LMy/PmegULfLmMKwH1PmA48dBVKBwBA6AbpXHDvfJQ7Zfhz4XYDe+gL82R8fnuYLkq/ksYDAIDQDeCGh8RL7OLA+sx71cge+quKvl8wtxHxDgCA0PXmB7fpoTA5I9wPGzmHLusvFobpxbV/owEBACB0Hbn/Jl38dc0fZejzTiOFfqesP7hGN6M/c8eTNCEAAISuEx+Inzyf4CkZ9nQ9a6TQr5H1Fw+H6ce5N9CGAAAQui7ce5te8pIz4j57Gbr+Qt8uZ92a67IwPbmWfLAAAAhdPE/eoZu5LnEpDHLXX+hykst7TAPoMO5+1Qe0IwAAhC64e/6Qbt7afoUcdz5lbA/9KVl/8l6YvtxGJx0AAKGL5IO3n9HPWpf0Kp1CN6CH/qzLbebKtelOOovSAQAQuji+fJue0pI1uv1omLFClzWv73b/fLvORg97+n7aEgAAQhfDDefqaaw75QWUbzdY6PL+xn2x3kIPe+heGhMAAEIXwVW6+urZF2TJ9lmje+jPyjvGHy/R3egMuwMAIHQBPPm0vrqSF07ukZRNodAvViF0mQVzX3aN7kYPu4PmBACA0DVy/236ukqea10XGS70Zy6SFxbnvkJ/oYdd+yQNCgAAoWvhyw/pa6qn5FnznmeM76HL2nFtfHr/Gf2NfhuhcQAACF0D956rr6e+8Ed5HXTPiWpdhP6Ix/L4S2R20au/YEAf/SFWpAMAIHTL+vypP6oc1dZF6O97HuUKeaVzfx+jAwAg9FD2+cUyhfnCNYYI/YV5m8C94LZSH51RdwAAhK6KL+vr82fvkalLL+nYdBH6z+fPCMgtoetijA4AgNAtyv36xsN94X25tnw1LMycHnpY2Ktyy+he+KwBkXFP0qwAABC6Up7Udb3aJfe45Kry0e0GCf19L/vGPCrb6C/cqb/Rb6JZAQAgdKXcoedo+xW9skX5c29dX3lCv0iZ0N/0VtKfyy5o3kL9k8ZdRbsCAEDoyrhSx975q993y+/4erWkLkL/vrcjffEF+WX94xV6K/2ZH9CwAAAQuhLu1y1Zyp3yB9t9+lym0C9RuNGK99cPBUZ3uxbqPPBOYBwAAEJXxLV6rTy/zK2Ey74YpkHoz07Nvj8l72jeD/ZFZUW+ZzvT6AAACN0q6DTgfs09itzoftRX6LishDR/nHmNcCsbovco9aOKCv2evvHuDLoDACB02dyvzwr0Zy9TMtrudl3ss7OrcBmavC3X3b7Sw2y/WFG539N1/7WHaFoAAAhdLm/r4yJl/fOf+06/9qw8sc6Mmss7ou/sMHcqmUjPW6hrF53d0QEAELrcDro+EXFPKeqeX+Gnn3uJ0j3Uq+WljPd93tdcoaST/gU959Ef+oDGBQCA0M3soL+nZPb8In/fdJG8bU1n/kBeXNuj/haMXSR/Jj3vPbroAAAI3Xw+0GkGXcEsdIDNTuTlWJ+1gmyh2lRxc44q+43E9Y+6ZoClcQEAIHQ53KCPhy6Sa8NHA67llrWu/Psz497PyNzXLVB8+p1ye+n/n65d9L/RugAAELoMntYpQZwsFT6y8H8HnoCWNaH9qOJju58KfBJXvCkniayuce5hb9O6AAAQemA+0ylJ3DOB06K/ec+//NdvfvO9rwZS+j1KY9a3y4tSvyLAcbd/9V9/81//cs+bWr+HlWsAAAhdf36g24apfvvVrssW/vOozccJpHRZO6/OSRorbxL9sgA6/8+J4v3XPy/0u6L+0S/qnNKd/K8AAAg9MFfp5qGnfHVt33/vin/5j9/M5l+/qHXwfq6cZaaW8bO5yr9/8XuzC/gf/3LFe+/72KLl/+q96doNNC8AAIQekKf1E9GzF783J2nrm+9fds8V//Of57p8kv9xjbaYOI8sMfLG3H2nlvnHf/VSxv/45/95xT2XvTD7PeXNhf/wP3TfRZVJdAAAhB6Yh/RU0T9+7z/+7d/+ZZR/+7d/+Ifx4evf+OI/v+rrS+TEmvd6RKzLi3P3tYB8+z/5KuV4+f/zH/5h6qz+92/+77/rLvSnaV4AAAg9IOfq6qJr/ul7//kbmfjopF8iJ8bdM/3qswq3UA/cPZ/D//pfk28h//lPYfrDSnQAAIQeGL1tNBYqLpPveU3Q8qqcxeyes+HbX5UldK9p2L/6G9kF/uo1BvicMHcAAIQemCcNENJXvyfXkF6G3Z99U5WYZf2Zu3p+WNz2/ytb51/89zBDOJfmBQCA0K0gdD9z0p4T6f8/e3fMm0YSBmBYNN4qNXKEG1NY/gFIsA1IFCgdBeU2QZcCISQadHHDSixCi0yfJnYUuXCRxk2oouhc7En+BS7yG5BOKHKBKA5yydmObfabBWYH/D71JT7pbvX6m5mdfbiCnZHcEvewy8Lb4h78JpBPiX/50JRzgg4ABF1CT5PS0nX334v+R+TT6rKr2H+7dzbfWG7DnyV3ACDoMbH0RKmdilT0pORSmfNH76XZFX1E9TwfpedazsJxKA4ACLqClq4sVSLso/clH0J9/8S3V1+Kvmleu3P1bVva86TOnicKPF4AQNBDeQnTin5by73DZa6H8UV3wB/c3sT+QbiKEKS19jxR5fECAIIeaqgvTJVArZcvRCfVa0/fVCf6feA601b7jUN3zxNZHi8AIOihBhrLJCxm40dh92qyL6wsOJ2WFN0A++rov0PySUN7nsjxeAEAQQ/l+hrTlJIfjPvzm6jn5wu3s/dEH2q7/jZftc8HqjsCHHIHAIJukILGNuWFV8yk87IPoF6/21v8UfZdWdGvj/rCXzb0nm9nCx0ACLpYVmeckrIxuJN5JZvP98J+oOxc3fX1ofCCuIb2nifqPF0AQNAFXCth3Db6a2GF+4JvuB7J/q6MbEDPJ1hxBwCCbqaqzjzJdqplY3XtRnI+bSpbvT/Yj3jZ/LrZPFwAQNBFcjqPxYm+ZSYa0C8/ji86ecnPe/NpVSN6DAvulsvDBQAE3cARPSG4jW1HsIN+fjKaX6keeon8/O/brwn+wq8mnnBnQAcAgi7X1Dqih7/uPQpfcT/YuRGtgf88Vj/+En7a/Z2RA3qLAR0ACLqYbdiIHrpE/vXk9g23xRvov/6xm8xlyN/5l+BtOv1BL/FoAQBBF7tyzNpFfxuy2v7lIpBNzberAaPR59r7JZfcYxjQPZ4sACDoCiY6F93zyx1yPz8VHzxv373HZnyxv3O51KE4/UfcrSZPFgAQdBVaF93D7nAZLXjR7OjNg1fD2+KX3kefPz65l34c/tpangV3ACDopvM0Zir0uriTJ75k/tfO/ujxm9/FSwHjN0ePj+mnoT2fau/5kOcKAAi6Irelr1MfQtuZeaS4b2uv5+vmCre3PXEr3efTrw+afvDRwHfWClc8VwBA0FXlNN4AG/4dlMz9Gf3yMHOy+ONsanv1N19q99bej04EL6HrXnFvsYEOAAQ9grq+g3Hh59zH+7WfR92Pz2uZ16PFF6y3o1wbv39aOzw+Pv50Xnu5VzTwljiLz6ADAEGPZKCt6OnwfI4bib3dFy92U5FvWG+H3hrfmf0u8EH8yRjN3021JjxUAEDQoynpKnpbPhCnL6IOz5Kp+1elBUEf671VxuKjqQBA0M0vekMe6Yaky+loP+P/P1gxbQud+RwACPoyBppOxgkC2okwaCsu69/+1iD49wm0nodj/xwACPpSJnreXqsE4qCLwtyJ9CNufxGomHUmzuF8OwAQ9CU1tVzrXlRodCfamrvSUr0g6Cl9PfdcnicAIOjLcstmLbmL9rcfrrmLBvsgYWLQuR8OAAj6SmR9o4KejHTOXbT1PjUw6Bb3twMAQV+ResukoOclaX5wBl3t/XVzgu5wHA4ACPrKrH3ZXekQmmQ3PEiqv+l+EaSNC/rQ5VECAIK+QiXLnKBH2URX20I3JeitAQ8SABD01Wp6xgRdtB2eirCFnjIs6FXGcwAg6Js1pCsFXTRtX9z/AVO1K+BNCDrjOQAQ9PVwq74RQVfcD4+y7x7/xTK+zXgOAAR9XSaOCUGX3RGTVD4Td+dkfOxB9zjcDgAEfZ2yLQOCrv4JVdkqfduUoDu8ew4ABH3NXNuKPejqx9xVL6OJNehW9ornBwAI+to117CVrhZQ9WPuqn8ixqCzeQ4ABF2XXNmPNejpserlr6ozfWxB94d8WA0ACLrGpK94SlcMuvJ7a4pvrcUVdHIOAAR9s5OuFlD129xVz8XHEnSLnAMAQY8j6UMrpqCrv4geKH5DPYagWzY5BwCCHg/XbsUS9MSFYp+V/4D2oDvZf3hmAICgx6fkxBH0jiDP43T0e2U0B90vcMsrABD0uE1WsZm+hqDf3RLPmxx0a8itcABA0E3gZh0Dgx4UNyLohZLLwwIABN0U9bJl8oSeDswMulVlOAcAgm7YmF4q+NqCHihO6GkTJ3TfK3HFKwAQdAM1bcekU+5Jo4PuZHlLDQAIurEmw5YpQTd5QndsltoBgKBvY9MFAU2pTuimBp2aAwBB39qmb2DQO9QcAAj69svZSmfkjAh6es1B9z32zQGAoG8eNyt/l237g26VeeEcAAj6prqqDx2foPsFe8L/DABA0Ddbs1RuPeegt6qM5gBA0LdELmz1fUuD3iqzaw4ABP05RX0Lg07MAYCgb3PUH99TNy3oxaWC7jvVEjEHAIK+3dyBXbCWC3rb4KBbnj1w+a8MAAT9uYzqVedu1afbEHSrMCxxbQwAEPTnXPVNDzotBwCC/tyrXrK9lr/uoI/XFnS/VbbZMAcAgo65v+1ur9hYX9CTK5/Qg1TFb3nD7IRPmgMAQcd9zVnWk9O1BD1YXdBnKU/2nGEpR8oBgKBjgcHZbFyffl826EFlxRP6vOT5bjk7YIEdAAg6xCa21+sVU98jT+iVVU3ojWmx33OqpbrLfxUAIOiIKJedTez94rTiLxH0KBN6YzaR97vz4+uEHAAIOlanWS9lh9VywbGC9U3oVssplKvemc3KOgCAoK+97QP7zOv2ev1ksTJNNYJlJvROajobxXvdrj2oNxnGAQAEPT5ubpC1h2ee1+3OMj/T7yd75ZnCD71ZthuNVGo6nRaLyeT8H+h2vbNhtjRhDgcAEHQAAAg6AAAg6AAAgKADAACCDgAAQQcAAAQdAAAQdAAAQNABACDoAACAoAMAAIIOAAAIOgAAz8+/AgwAS81Q/NX8mHsAAAAASUVORK5CYII=;" vertex="1" parent="1">
          <mxGeometry x="370" y="-170" width="710.02" height="236.08" as="geometry" />
        </mxCell>
        <mxCell id="dzG55kyt_CLBJyFvYWDM-35" value="main" style="endArrow=none;html=1;rounded=0;" edge="1" parent="1">
          <mxGeometry width="50" height="50" relative="1" as="geometry">
            <mxPoint x="430" y="190" as="sourcePoint" />
            <mxPoint x="430" y="140" as="targetPoint" />
          </mxGeometry>
        </mxCell>
        <mxCell id="dzG55kyt_CLBJyFvYWDM-36" value="2022.08.31" style="rounded=1;whiteSpace=wrap;html=1;fillColor=#dae8fc;strokeColor=#6c8ebf;" vertex="1" parent="1">
          <mxGeometry x="370" y="190" width="120" height="20" as="geometry" />
        </mxCell>
        <mxCell id="dzG55kyt_CLBJyFvYWDM-37" value="main" style="endArrow=none;html=1;rounded=0;exitX=0.5;exitY=0;exitDx=0;exitDy=0;" edge="1" parent="1" source="dzG55kyt_CLBJyFvYWDM-38">
          <mxGeometry width="50" height="50" relative="1" as="geometry">
            <mxPoint x="430" y="260" as="sourcePoint" />
            <mxPoint x="430" y="210" as="targetPoint" />
          </mxGeometry>
        </mxCell>
        <mxCell id="dzG55kyt_CLBJyFvYWDM-38" value="2022.08.22_1" style="rounded=1;whiteSpace=wrap;html=1;fillColor=#dae8fc;strokeColor=#6c8ebf;" vertex="1" parent="1">
          <mxGeometry x="370" y="350" width="120" height="20" as="geometry" />
        </mxCell>
        <mxCell id="dzG55kyt_CLBJyFvYWDM-39" value="2022.08.22" style="rounded=1;whiteSpace=wrap;html=1;fillColor=#dae8fc;strokeColor=#6c8ebf;" vertex="1" parent="1">
          <mxGeometry x="370" y="470" width="120" height="20" as="geometry" />
        </mxCell>
        <mxCell id="dzG55kyt_CLBJyFvYWDM-40" value="main" style="endArrow=none;html=1;rounded=0;exitX=0.5;exitY=0;exitDx=0;exitDy=0;" edge="1" parent="1" source="dzG55kyt_CLBJyFvYWDM-39">
          <mxGeometry width="50" height="50" relative="1" as="geometry">
            <mxPoint x="430" y="420" as="sourcePoint" />
            <mxPoint x="430" y="370" as="targetPoint" />
          </mxGeometry>
        </mxCell>
        <mxCell id="dzG55kyt_CLBJyFvYWDM-41" value="main" style="endArrow=none;html=1;rounded=0;exitX=0.5;exitY=0;exitDx=0;exitDy=0;entryX=0.5;entryY=1;entryDx=0;entryDy=0;" edge="1" parent="1" source="dzG55kyt_CLBJyFvYWDM-42" target="dzG55kyt_CLBJyFvYWDM-39">
          <mxGeometry width="50" height="50" relative="1" as="geometry">
            <mxPoint x="430" y="490" as="sourcePoint" />
            <mxPoint x="430" y="540" as="targetPoint" />
          </mxGeometry>
        </mxCell>
        <mxCell id="dzG55kyt_CLBJyFvYWDM-42" value="2022.08.03" style="rounded=1;whiteSpace=wrap;html=1;fillColor=#dae8fc;strokeColor=#6c8ebf;" vertex="1" parent="1">
          <mxGeometry x="370" y="600" width="120" height="20" as="geometry" />
        </mxCell>
        <mxCell id="dzG55kyt_CLBJyFvYWDM-43" value="GitHub" style="swimlane;fontStyle=0;childLayout=stackLayout;horizontal=1;startSize=30;horizontalStack=0;resizeParent=1;resizeParentMax=0;resizeLast=0;collapsible=1;marginBottom=0;fontColor=#000000;" vertex="1" parent="1">
          <mxGeometry x="360" y="80" width="140" height="60" as="geometry" />
        </mxCell>
        <mxCell id="dzG55kyt_CLBJyFvYWDM-44" value="main" style="text;strokeColor=none;fillColor=none;align=left;verticalAlign=middle;spacingLeft=4;spacingRight=4;overflow=hidden;points=[[0,0.5],[1,0.5]];portConstraint=eastwest;rotatable=0;fontColor=#000000;" vertex="1" parent="dzG55kyt_CLBJyFvYWDM-43">
          <mxGeometry y="30" width="140" height="30" as="geometry" />
        </mxCell>
        <mxCell id="dzG55kyt_CLBJyFvYWDM-48" value="main" style="endArrow=none;html=1;rounded=0;" edge="1" parent="1">
          <mxGeometry width="50" height="50" relative="1" as="geometry">
            <mxPoint x="1290" y="260" as="sourcePoint" />
            <mxPoint x="1290" y="210" as="targetPoint" />
          </mxGeometry>
        </mxCell>
        <mxCell id="dzG55kyt_CLBJyFvYWDM-49" value="feature.." style="rounded=1;whiteSpace=wrap;html=1;fillColor=#dae8fc;strokeColor=#6c8ebf;" vertex="1" parent="1">
          <mxGeometry x="1230" y="260" width="120" height="20" as="geometry" />
        </mxCell>
        <mxCell id="dzG55kyt_CLBJyFvYWDM-50" value="feature.." style="rounded=1;whiteSpace=wrap;html=1;fillColor=#dae8fc;strokeColor=#6c8ebf;" vertex="1" parent="1">
          <mxGeometry x="1230" y="400" width="120" height="20" as="geometry" />
        </mxCell>
        <mxCell id="dzG55kyt_CLBJyFvYWDM-51" value="main" style="endArrow=none;html=1;rounded=0;" edge="1" parent="1">
          <mxGeometry width="50" height="50" relative="1" as="geometry">
            <mxPoint x="1290" y="400" as="sourcePoint" />
            <mxPoint x="1290" y="350" as="targetPoint" />
          </mxGeometry>
        </mxCell>
        <mxCell id="dzG55kyt_CLBJyFvYWDM-53" value="main" style="endArrow=none;html=1;rounded=0;exitX=0.5;exitY=0;exitDx=0;exitDy=0;" edge="1" parent="1" source="dzG55kyt_CLBJyFvYWDM-25">
          <mxGeometry width="50" height="50" relative="1" as="geometry">
            <mxPoint x="1290" y="540" as="sourcePoint" />
            <mxPoint x="1290" y="490" as="targetPoint" />
          </mxGeometry>
        </mxCell>
        <mxCell id="dzG55kyt_CLBJyFvYWDM-54" value="feature.." style="rounded=1;whiteSpace=wrap;html=1;fillColor=#dae8fc;strokeColor=#6c8ebf;" vertex="1" parent="1">
          <mxGeometry x="1230" y="670" width="120" height="20" as="geometry" />
        </mxCell>
        <mxCell id="dzG55kyt_CLBJyFvYWDM-55" value="main" style="endArrow=none;html=1;rounded=0;" edge="1" parent="1">
          <mxGeometry width="50" height="50" relative="1" as="geometry">
            <mxPoint x="1290" y="670" as="sourcePoint" />
            <mxPoint x="1290" y="620" as="targetPoint" />
          </mxGeometry>
        </mxCell>
        <mxCell id="dzG55kyt_CLBJyFvYWDM-56" value="develop" style="endArrow=none;html=1;rounded=0;" edge="1" parent="1">
          <mxGeometry width="50" height="50" relative="1" as="geometry">
            <mxPoint x="740" y="190" as="sourcePoint" />
            <mxPoint x="740" y="140" as="targetPoint" />
          </mxGeometry>
        </mxCell>
        <mxCell id="dzG55kyt_CLBJyFvYWDM-57" value="release/2022.08.31" style="rounded=1;whiteSpace=wrap;html=1;fillColor=#dae8fc;strokeColor=#6c8ebf;" vertex="1" parent="1">
          <mxGeometry x="680" y="190" width="120" height="20" as="geometry" />
        </mxCell>
        <mxCell id="dzG55kyt_CLBJyFvYWDM-58" value="develop" style="endArrow=none;html=1;rounded=0;exitX=0.5;exitY=0;exitDx=0;exitDy=0;" edge="1" parent="1" source="dzG55kyt_CLBJyFvYWDM-59">
          <mxGeometry width="50" height="50" relative="1" as="geometry">
            <mxPoint x="740" y="260" as="sourcePoint" />
            <mxPoint x="740" y="210" as="targetPoint" />
          </mxGeometry>
        </mxCell>
        <mxCell id="dzG55kyt_CLBJyFvYWDM-59" value="release/2022.08.22_1" style="rounded=1;whiteSpace=wrap;html=1;fillColor=#dae8fc;strokeColor=#6c8ebf;" vertex="1" parent="1">
          <mxGeometry x="680" y="350" width="120" height="20" as="geometry" />
        </mxCell>
        <mxCell id="dzG55kyt_CLBJyFvYWDM-60" value="release/2022.08.22" style="rounded=1;whiteSpace=wrap;html=1;fillColor=#dae8fc;strokeColor=#6c8ebf;" vertex="1" parent="1">
          <mxGeometry x="680" y="470" width="120" height="20" as="geometry" />
        </mxCell>
        <mxCell id="dzG55kyt_CLBJyFvYWDM-61" value="develop" style="endArrow=none;html=1;rounded=0;exitX=0.5;exitY=0;exitDx=0;exitDy=0;" edge="1" parent="1" source="dzG55kyt_CLBJyFvYWDM-60">
          <mxGeometry width="50" height="50" relative="1" as="geometry">
            <mxPoint x="740" y="420" as="sourcePoint" />
            <mxPoint x="740" y="370" as="targetPoint" />
          </mxGeometry>
        </mxCell>
        <mxCell id="dzG55kyt_CLBJyFvYWDM-62" value="develop" style="endArrow=none;html=1;rounded=0;exitX=0.5;exitY=0;exitDx=0;exitDy=0;entryX=0.5;entryY=1;entryDx=0;entryDy=0;" edge="1" parent="1" source="dzG55kyt_CLBJyFvYWDM-63" target="dzG55kyt_CLBJyFvYWDM-60">
          <mxGeometry width="50" height="50" relative="1" as="geometry">
            <mxPoint x="740" y="490" as="sourcePoint" />
            <mxPoint x="740" y="510" as="targetPoint" />
          </mxGeometry>
        </mxCell>
        <mxCell id="dzG55kyt_CLBJyFvYWDM-63" value="release/2022.08.03" style="rounded=1;whiteSpace=wrap;html=1;fillColor=#dae8fc;strokeColor=#6c8ebf;" vertex="1" parent="1">
          <mxGeometry x="680" y="600" width="120" height="20" as="geometry" />
        </mxCell>
        <mxCell id="dzG55kyt_CLBJyFvYWDM-64" value="GitHub" style="swimlane;fontStyle=0;childLayout=stackLayout;horizontal=1;startSize=30;horizontalStack=0;resizeParent=1;resizeParentMax=0;resizeLast=0;collapsible=1;marginBottom=0;fontColor=#000000;" vertex="1" parent="1">
          <mxGeometry x="670" y="80" width="140" height="60" as="geometry" />
        </mxCell>
        <mxCell id="dzG55kyt_CLBJyFvYWDM-65" value="develop" style="text;strokeColor=none;fillColor=none;align=left;verticalAlign=middle;spacingLeft=4;spacingRight=4;overflow=hidden;points=[[0,0.5],[1,0.5]];portConstraint=eastwest;rotatable=0;fontColor=#000000;" vertex="1" parent="dzG55kyt_CLBJyFvYWDM-64">
          <mxGeometry y="30" width="140" height="30" as="geometry" />
        </mxCell>
        <mxCell id="dzG55kyt_CLBJyFvYWDM-69" value="" style="endArrow=classic;html=1;rounded=0;fontColor=#000000;exitX=0;exitY=0.5;exitDx=0;exitDy=0;entryX=1;entryY=0.5;entryDx=0;entryDy=0;" edge="1" parent="1" source="dzG55kyt_CLBJyFvYWDM-38" target="dzG55kyt_CLBJyFvYWDM-8">
          <mxGeometry width="50" height="50" relative="1" as="geometry">
            <mxPoint x="340" y="360" as="sourcePoint" />
            <mxPoint x="250" y="360" as="targetPoint" />
          </mxGeometry>
        </mxCell>
        <mxCell id="dzG55kyt_CLBJyFvYWDM-70" value="" style="endArrow=classic;html=1;rounded=0;fontColor=#000000;exitX=0;exitY=0.5;exitDx=0;exitDy=0;entryX=1;entryY=0.5;entryDx=0;entryDy=0;" edge="1" parent="1" source="dzG55kyt_CLBJyFvYWDM-39" target="dzG55kyt_CLBJyFvYWDM-9">
          <mxGeometry width="50" height="50" relative="1" as="geometry">
            <mxPoint x="350" y="430" as="sourcePoint" />
            <mxPoint x="250" y="430" as="targetPoint" />
          </mxGeometry>
        </mxCell>
        <mxCell id="dzG55kyt_CLBJyFvYWDM-71" value="" style="endArrow=classic;html=1;rounded=0;fontColor=#000000;entryX=1;entryY=0.5;entryDx=0;entryDy=0;exitX=0;exitY=0.5;exitDx=0;exitDy=0;" edge="1" parent="1" source="dzG55kyt_CLBJyFvYWDM-42">
          <mxGeometry width="50" height="50" relative="1" as="geometry">
            <mxPoint x="350" y="610" as="sourcePoint" />
            <mxPoint x="200" y="609.5" as="targetPoint" />
          </mxGeometry>
        </mxCell>
        <mxCell id="dzG55kyt_CLBJyFvYWDM-73" value="" style="endArrow=classic;html=1;rounded=0;fontColor=#000000;entryX=1;entryY=0.5;entryDx=0;entryDy=0;exitX=0;exitY=0.5;exitDx=0;exitDy=0;" edge="1" parent="1" source="dzG55kyt_CLBJyFvYWDM-36">
          <mxGeometry width="50" height="50" relative="1" as="geometry">
            <mxPoint x="330" y="200" as="sourcePoint" />
            <mxPoint x="200" y="200" as="targetPoint" />
          </mxGeometry>
        </mxCell>
        <mxCell id="dzG55kyt_CLBJyFvYWDM-78" value="PR" style="endArrow=classic;html=1;rounded=0;fontColor=#000000;exitX=0;exitY=0.5;exitDx=0;exitDy=0;entryX=1;entryY=0.5;entryDx=0;entryDy=0;" edge="1" parent="1" source="dzG55kyt_CLBJyFvYWDM-57" target="dzG55kyt_CLBJyFvYWDM-36">
          <mxGeometry relative="1" as="geometry">
            <mxPoint x="580" y="200" as="sourcePoint" />
            <mxPoint x="500" y="199.5" as="targetPoint" />
          </mxGeometry>
        </mxCell>
        <mxCell id="dzG55kyt_CLBJyFvYWDM-79" value="&lt;b style=&quot;font-size: 14px;&quot;&gt;PR&lt;/b&gt;" style="edgeLabel;resizable=0;html=1;align=center;verticalAlign=middle;fontColor=#000000;fontSize=14;" connectable="0" vertex="1" parent="dzG55kyt_CLBJyFvYWDM-78">
          <mxGeometry relative="1" as="geometry" />
        </mxCell>
        <mxCell id="dzG55kyt_CLBJyFvYWDM-80" value="PR" style="endArrow=classic;html=1;rounded=0;fontColor=#000000;exitX=0;exitY=0.5;exitDx=0;exitDy=0;entryX=1;entryY=0.5;entryDx=0;entryDy=0;" edge="1" parent="1" source="dzG55kyt_CLBJyFvYWDM-59" target="dzG55kyt_CLBJyFvYWDM-38">
          <mxGeometry relative="1" as="geometry">
            <mxPoint x="590" y="360" as="sourcePoint" />
            <mxPoint x="500" y="359.5" as="targetPoint" />
          </mxGeometry>
        </mxCell>
        <mxCell id="dzG55kyt_CLBJyFvYWDM-81" value="&lt;b style=&quot;font-size: 14px;&quot;&gt;PR&lt;/b&gt;" style="edgeLabel;resizable=0;html=1;align=center;verticalAlign=middle;fontColor=#000000;fontSize=14;" connectable="0" vertex="1" parent="dzG55kyt_CLBJyFvYWDM-80">
          <mxGeometry relative="1" as="geometry" />
        </mxCell>
        <mxCell id="dzG55kyt_CLBJyFvYWDM-82" value="PR" style="endArrow=classic;html=1;rounded=0;fontColor=#000000;exitX=0;exitY=0.5;exitDx=0;exitDy=0;entryX=1;entryY=0.5;entryDx=0;entryDy=0;" edge="1" parent="1" source="dzG55kyt_CLBJyFvYWDM-60" target="dzG55kyt_CLBJyFvYWDM-39">
          <mxGeometry relative="1" as="geometry">
            <mxPoint x="580" y="430" as="sourcePoint" />
            <mxPoint x="500" y="429.5" as="targetPoint" />
          </mxGeometry>
        </mxCell>
        <mxCell id="dzG55kyt_CLBJyFvYWDM-83" value="&lt;b style=&quot;font-size: 14px;&quot;&gt;PR&lt;/b&gt;" style="edgeLabel;resizable=0;html=1;align=center;verticalAlign=middle;fontColor=#000000;fontSize=14;" connectable="0" vertex="1" parent="dzG55kyt_CLBJyFvYWDM-82">
          <mxGeometry relative="1" as="geometry" />
        </mxCell>
        <mxCell id="dzG55kyt_CLBJyFvYWDM-84" value="PR" style="endArrow=classic;html=1;rounded=0;fontColor=#000000;exitX=0;exitY=0.5;exitDx=0;exitDy=0;entryX=1;entryY=0.5;entryDx=0;entryDy=0;" edge="1" parent="1" source="dzG55kyt_CLBJyFvYWDM-63" target="dzG55kyt_CLBJyFvYWDM-42">
          <mxGeometry relative="1" as="geometry">
            <mxPoint x="580" y="610" as="sourcePoint" />
            <mxPoint x="500" y="609.5" as="targetPoint" />
          </mxGeometry>
        </mxCell>
        <mxCell id="dzG55kyt_CLBJyFvYWDM-85" value="&lt;b style=&quot;font-size: 14px;&quot;&gt;PR&lt;/b&gt;" style="edgeLabel;resizable=0;html=1;align=center;verticalAlign=middle;fontColor=#000000;fontSize=14;" connectable="0" vertex="1" parent="dzG55kyt_CLBJyFvYWDM-84">
          <mxGeometry relative="1" as="geometry" />
        </mxCell>
        <mxCell id="dzG55kyt_CLBJyFvYWDM-105" value="feature" style="endArrow=none;html=1;rounded=0;exitX=0.5;exitY=0;exitDx=0;exitDy=0;entryX=0.5;entryY=1;entryDx=0;entryDy=0;entryPerimeter=0;" edge="1" parent="1" source="dzG55kyt_CLBJyFvYWDM-106" target="dzG55kyt_CLBJyFvYWDM-108">
          <mxGeometry width="50" height="50" relative="1" as="geometry">
            <mxPoint x="1010" y="230" as="sourcePoint" />
            <mxPoint x="1010" y="220" as="targetPoint" />
          </mxGeometry>
        </mxCell>
        <mxCell id="dzG55kyt_CLBJyFvYWDM-106" value="WEB-1060" style="rounded=1;whiteSpace=wrap;html=1;fillColor=#dae8fc;strokeColor=#6c8ebf;" vertex="1" parent="1">
          <mxGeometry x="950" y="260" width="120" height="20" as="geometry" />
        </mxCell>
        <mxCell id="dzG55kyt_CLBJyFvYWDM-107" value="GitHub" style="swimlane;fontStyle=0;childLayout=stackLayout;horizontal=1;startSize=30;horizontalStack=0;resizeParent=1;resizeParentMax=0;resizeLast=0;collapsible=1;marginBottom=0;fontColor=#000000;" vertex="1" parent="1">
          <mxGeometry x="940" y="150" width="140" height="60" as="geometry" />
        </mxCell>
        <mxCell id="dzG55kyt_CLBJyFvYWDM-108" value="feature" style="text;strokeColor=none;fillColor=none;align=left;verticalAlign=middle;spacingLeft=4;spacingRight=4;overflow=hidden;points=[[0,0.5],[1,0.5]];portConstraint=eastwest;rotatable=0;fontColor=#000000;" vertex="1" parent="dzG55kyt_CLBJyFvYWDM-107">
          <mxGeometry y="30" width="140" height="30" as="geometry" />
        </mxCell>
        <mxCell id="dzG55kyt_CLBJyFvYWDM-124" value="feature" style="endArrow=none;html=1;rounded=0;" edge="1" parent="1">
          <mxGeometry width="50" height="50" relative="1" as="geometry">
            <mxPoint x="1010" y="330" as="sourcePoint" />
            <mxPoint x="1010" y="280" as="targetPoint" />
          </mxGeometry>
        </mxCell>
        <mxCell id="dzG55kyt_CLBJyFvYWDM-125" value="WEB-1055" style="rounded=1;whiteSpace=wrap;html=1;fillColor=#dae8fc;strokeColor=#6c8ebf;" vertex="1" parent="1">
          <mxGeometry x="950" y="320" width="120" height="20" as="geometry" />
        </mxCell>
        <mxCell id="dzG55kyt_CLBJyFvYWDM-127" value="" style="edgeStyle=elbowEdgeStyle;elbow=horizontal;endArrow=classic;html=1;rounded=0;fontSize=14;fontColor=#000000;entryX=0;entryY=0.5;entryDx=0;entryDy=0;exitX=1;exitY=0.5;exitDx=0;exitDy=0;" edge="1" parent="1" source="dzG55kyt_CLBJyFvYWDM-106" target="dzG55kyt_CLBJyFvYWDM-49">
          <mxGeometry width="50" height="50" relative="1" as="geometry">
            <mxPoint x="1180" y="240" as="sourcePoint" />
            <mxPoint x="1090" y="200" as="targetPoint" />
          </mxGeometry>
        </mxCell>
        <mxCell id="dzG55kyt_CLBJyFvYWDM-131" value="" style="edgeStyle=orthogonalEdgeStyle;rounded=0;orthogonalLoop=1;jettySize=auto;html=1;fontSize=14;fontColor=#000000;exitX=1;exitY=0.5;exitDx=0;exitDy=0;" edge="1" parent="1" source="dzG55kyt_CLBJyFvYWDM-129" target="dzG55kyt_CLBJyFvYWDM-50">
          <mxGeometry relative="1" as="geometry">
            <Array as="points">
              <mxPoint x="1100" y="410" />
              <mxPoint x="1100" y="410" />
            </Array>
          </mxGeometry>
        </mxCell>
        <mxCell id="dzG55kyt_CLBJyFvYWDM-129" value="feature.." style="rounded=1;whiteSpace=wrap;html=1;fillColor=#dae8fc;strokeColor=#6c8ebf;" vertex="1" parent="1">
          <mxGeometry x="950" y="400" width="120" height="20" as="geometry" />
        </mxCell>
        <mxCell id="dzG55kyt_CLBJyFvYWDM-130" value="feature" style="endArrow=none;html=1;rounded=0;exitX=0.5;exitY=0;exitDx=0;exitDy=0;entryX=0.5;entryY=1;entryDx=0;entryDy=0;" edge="1" parent="1" source="dzG55kyt_CLBJyFvYWDM-129" target="dzG55kyt_CLBJyFvYWDM-125">
          <mxGeometry width="50" height="50" relative="1" as="geometry">
            <mxPoint x="1009.5" y="370" as="sourcePoint" />
            <mxPoint x="1010" y="350" as="targetPoint" />
          </mxGeometry>
        </mxCell>
        <mxCell id="dzG55kyt_CLBJyFvYWDM-132" value="" style="endArrow=classic;html=1;rounded=0;fontSize=14;fontColor=#000000;exitX=0;exitY=0.5;exitDx=0;exitDy=0;" edge="1" parent="1" source="dzG55kyt_CLBJyFvYWDM-106">
          <mxGeometry relative="1" as="geometry">
            <mxPoint x="870" y="239.5" as="sourcePoint" />
            <mxPoint x="740" y="270" as="targetPoint" />
          </mxGeometry>
        </mxCell>
        <mxCell id="dzG55kyt_CLBJyFvYWDM-133" value="finish feature" style="edgeLabel;resizable=0;html=1;align=center;verticalAlign=middle;fontSize=14;fontColor=#000000;" connectable="0" vertex="1" parent="dzG55kyt_CLBJyFvYWDM-132">
          <mxGeometry relative="1" as="geometry" />
        </mxCell>
        <mxCell id="dzG55kyt_CLBJyFvYWDM-134" value="" style="endArrow=classic;html=1;rounded=0;fontSize=14;fontColor=#000000;exitX=0;exitY=0.5;exitDx=0;exitDy=0;" edge="1" parent="1" source="dzG55kyt_CLBJyFvYWDM-125">
          <mxGeometry relative="1" as="geometry">
            <mxPoint x="890" y="299.5" as="sourcePoint" />
            <mxPoint x="740" y="330" as="targetPoint" />
          </mxGeometry>
        </mxCell>
        <mxCell id="dzG55kyt_CLBJyFvYWDM-135" value="finish feature" style="edgeLabel;resizable=0;html=1;align=center;verticalAlign=middle;fontSize=14;fontColor=#000000;" connectable="0" vertex="1" parent="dzG55kyt_CLBJyFvYWDM-134">
          <mxGeometry relative="1" as="geometry" />
        </mxCell>
        <mxCell id="dzG55kyt_CLBJyFvYWDM-139" value="" style="edgeStyle=orthogonalEdgeStyle;rounded=0;orthogonalLoop=1;jettySize=auto;html=1;fontSize=14;fontColor=#000000;entryX=0;entryY=0.5;entryDx=0;entryDy=0;exitX=1;exitY=0.5;exitDx=0;exitDy=0;" edge="1" parent="1" source="dzG55kyt_CLBJyFvYWDM-60" target="dzG55kyt_CLBJyFvYWDM-22">
          <mxGeometry relative="1" as="geometry">
            <mxPoint x="810" y="430" as="sourcePoint" />
            <mxPoint x="1240" y="540" as="targetPoint" />
            <Array as="points">
              <mxPoint x="890" y="480" />
              <mxPoint x="890" y="480" />
            </Array>
          </mxGeometry>
        </mxCell>
        <mxCell id="dzG55kyt_CLBJyFvYWDM-147" value="" style="edgeStyle=orthogonalEdgeStyle;rounded=0;orthogonalLoop=1;jettySize=auto;html=1;fontSize=14;fontColor=#000000;entryX=0;entryY=0.5;entryDx=0;entryDy=0;exitX=1;exitY=0.5;exitDx=0;exitDy=0;" edge="1" parent="1">
          <mxGeometry relative="1" as="geometry">
            <mxPoint x="800" y="609.5" as="sourcePoint" />
            <mxPoint x="1230" y="609.5" as="targetPoint" />
            <Array as="points">
              <mxPoint x="890" y="609.5" />
              <mxPoint x="890" y="609.5" />
            </Array>
          </mxGeometry>
        </mxCell>
      </root>
    </mxGraphModel>
  </diagram>
</mxfile>
